<mxfile host="app.diagrams.net" agent="Mozilla/5.0 (Windows NT 10.0; Win64; x64) AppleWebKit/537.36 (KHTML, like Gecko) Chrome/133.0.0.0 Safari/537.36" version="26.0.16" pages="5">
  <diagram name="Главная" id="zt7nlw_iomPGoz3ihPuO">
    <mxGraphModel dx="3217" dy="1287" grid="1" gridSize="10" guides="1" tooltips="1" connect="1" arrows="1" fold="1" page="1" pageScale="1" pageWidth="827" pageHeight="1169" math="0" shadow="0">
      <root>
        <mxCell id="0" />
        <mxCell id="1" parent="0" />
        <mxCell id="P3MkR0HjccSfX4yVVzjA-170" value="" style="group" vertex="1" connectable="0" parent="1">
          <mxGeometry x="-660" y="70" width="1080.0000000000002" height="805" as="geometry" />
        </mxCell>
        <mxCell id="P3MkR0HjccSfX4yVVzjA-3" value="" style="rounded=0;whiteSpace=wrap;html=1;container=0;" vertex="1" parent="P3MkR0HjccSfX4yVVzjA-170">
          <mxGeometry x="20" width="1060.0000000000002" height="805" as="geometry" />
        </mxCell>
        <mxCell id="P3MkR0HjccSfX4yVVzjA-45" value="" style="rounded=1;whiteSpace=wrap;html=1;rotation=90;fillColor=light-dark(#999999,var(--ge-dark-color, #121212));container=0;" vertex="1" parent="P3MkR0HjccSfX4yVVzjA-170">
          <mxGeometry x="983.4144736842106" y="288.75" width="167.3684210526316" height="12.5" as="geometry" />
        </mxCell>
        <mxCell id="P3MkR0HjccSfX4yVVzjA-26" value="" style="endArrow=none;html=1;rounded=0;exitX=0;exitY=0.25;exitDx=0;exitDy=0;entryX=1;entryY=0.25;entryDx=0;entryDy=0;" edge="1" parent="P3MkR0HjccSfX4yVVzjA-170">
          <mxGeometry width="50" height="50" relative="1" as="geometry">
            <mxPoint x="20" y="145" as="sourcePoint" />
            <mxPoint x="1080.0000000000002" y="145" as="targetPoint" />
          </mxGeometry>
        </mxCell>
        <mxCell id="P3MkR0HjccSfX4yVVzjA-29" value="" style="endArrow=none;html=1;rounded=0;exitX=0;exitY=0.333;exitDx=0;exitDy=0;entryX=0.998;entryY=0.333;entryDx=0;entryDy=0;entryPerimeter=0;exitPerimeter=0;" edge="1" parent="P3MkR0HjccSfX4yVVzjA-170">
          <mxGeometry width="50" height="50" relative="1" as="geometry">
            <mxPoint x="20" y="194.99500000000006" as="sourcePoint" />
            <mxPoint x="1077.8799999999999" y="194.99500000000006" as="targetPoint" />
          </mxGeometry>
        </mxCell>
        <mxCell id="P3MkR0HjccSfX4yVVzjA-17" value="" style="rounded=0;whiteSpace=wrap;html=1;container=0;" vertex="1" parent="P3MkR0HjccSfX4yVVzjA-170">
          <mxGeometry x="50" y="10" width="205" height="100" as="geometry" />
        </mxCell>
        <mxCell id="P3MkR0HjccSfX4yVVzjA-20" value="Статистика" style="text;html=1;align=center;verticalAlign=middle;whiteSpace=wrap;rounded=0;container=0;fontStyle=1" vertex="1" parent="P3MkR0HjccSfX4yVVzjA-170">
          <mxGeometry x="160" y="10" width="60" height="30" as="geometry" />
        </mxCell>
        <mxCell id="P3MkR0HjccSfX4yVVzjA-8" value="" style="shape=actor;whiteSpace=wrap;html=1;fillColor=light-dark(#000000,var(--ge-dark-color, #121212));container=0;" vertex="1" parent="P3MkR0HjccSfX4yVVzjA-170">
          <mxGeometry x="60" y="20" width="50" height="60" as="geometry" />
        </mxCell>
        <mxCell id="P3MkR0HjccSfX4yVVzjA-9" value="UserName" style="text;html=1;align=center;verticalAlign=middle;whiteSpace=wrap;rounded=0;container=0;fontStyle=1" vertex="1" parent="P3MkR0HjccSfX4yVVzjA-170">
          <mxGeometry x="55" y="80" width="60" height="30" as="geometry" />
        </mxCell>
        <mxCell id="P3MkR0HjccSfX4yVVzjA-11" value="Авторизация" style="rounded=1;whiteSpace=wrap;html=1;container=0;fontStyle=1;fontSize=14;" vertex="1" parent="P3MkR0HjccSfX4yVVzjA-170">
          <mxGeometry x="950" y="60" width="110" height="25" as="geometry" />
        </mxCell>
        <mxCell id="P3MkR0HjccSfX4yVVzjA-14" value="Регистрация" style="rounded=1;whiteSpace=wrap;html=1;container=0;fontStyle=1;fontSize=14;" vertex="1" parent="P3MkR0HjccSfX4yVVzjA-170">
          <mxGeometry x="950" y="15" width="110" height="25" as="geometry" />
        </mxCell>
        <mxCell id="P3MkR0HjccSfX4yVVzjA-15" value="Выйти" style="rounded=1;whiteSpace=wrap;html=1;container=0;fontStyle=1;fontSize=14;" vertex="1" parent="P3MkR0HjccSfX4yVVzjA-170">
          <mxGeometry x="945" y="110" width="120" height="25" as="geometry" />
        </mxCell>
        <mxCell id="P3MkR0HjccSfX4yVVzjA-61" value="" style="verticalLabelPosition=bottom;verticalAlign=top;html=1;shape=mxgraph.basic.rect;fillColor2=none;strokeWidth=1;size=20;indent=5;container=0;" vertex="1" parent="P3MkR0HjccSfX4yVVzjA-170">
          <mxGeometry x="40" y="205" width="400" height="180" as="geometry" />
        </mxCell>
        <mxCell id="P3MkR0HjccSfX4yVVzjA-62" value="" style="verticalLabelPosition=bottom;verticalAlign=top;html=1;shape=mxgraph.basic.rect;fillColor2=none;strokeWidth=1;size=20;indent=5;container=0;" vertex="1" parent="P3MkR0HjccSfX4yVVzjA-170">
          <mxGeometry x="40" y="405" width="400" height="180" as="geometry" />
        </mxCell>
        <mxCell id="P3MkR0HjccSfX4yVVzjA-63" value="" style="verticalLabelPosition=bottom;verticalAlign=top;html=1;shape=mxgraph.basic.rect;fillColor2=none;strokeWidth=1;size=20;indent=5;container=0;" vertex="1" parent="P3MkR0HjccSfX4yVVzjA-170">
          <mxGeometry x="40" y="605" width="400" height="180" as="geometry" />
        </mxCell>
        <mxCell id="P3MkR0HjccSfX4yVVzjA-64" value="1" style="text;html=1;align=center;verticalAlign=middle;whiteSpace=wrap;rounded=0;container=0;" vertex="1" parent="P3MkR0HjccSfX4yVVzjA-170">
          <mxGeometry y="280" width="60" height="30" as="geometry" />
        </mxCell>
        <mxCell id="P3MkR0HjccSfX4yVVzjA-65" value="2" style="text;html=1;align=center;verticalAlign=middle;whiteSpace=wrap;rounded=0;container=0;" vertex="1" parent="P3MkR0HjccSfX4yVVzjA-170">
          <mxGeometry y="465" width="60" height="30" as="geometry" />
        </mxCell>
        <mxCell id="P3MkR0HjccSfX4yVVzjA-66" value="3" style="text;html=1;align=center;verticalAlign=middle;whiteSpace=wrap;rounded=0;container=0;" vertex="1" parent="P3MkR0HjccSfX4yVVzjA-170">
          <mxGeometry y="665" width="60" height="30" as="geometry" />
        </mxCell>
        <mxCell id="P3MkR0HjccSfX4yVVzjA-67" value="" style="shape=image;verticalLabelPosition=bottom;labelBackgroundColor=default;verticalAlign=top;aspect=fixed;imageAspect=0;image=https://static.nonograms.ru/files/nonograms/small/pirati3_1_0.png;container=0;" vertex="1" parent="P3MkR0HjccSfX4yVVzjA-170">
          <mxGeometry x="46" y="215" width="154.58" height="160" as="geometry" />
        </mxCell>
        <mxCell id="P3MkR0HjccSfX4yVVzjA-68" value="" style="shape=image;verticalLabelPosition=bottom;labelBackgroundColor=default;verticalAlign=top;aspect=fixed;imageAspect=0;image=https://static.nonograms.ru/files/nonograms/small/pirati3_1_0.png;container=0;" vertex="1" parent="P3MkR0HjccSfX4yVVzjA-170">
          <mxGeometry x="46" y="415" width="154.58" height="160" as="geometry" />
        </mxCell>
        <mxCell id="P3MkR0HjccSfX4yVVzjA-69" value="" style="shape=image;verticalLabelPosition=bottom;labelBackgroundColor=default;verticalAlign=top;aspect=fixed;imageAspect=0;image=https://static.nonograms.ru/files/nonograms/small/pirati3_1_0.png;container=0;" vertex="1" parent="P3MkR0HjccSfX4yVVzjA-170">
          <mxGeometry x="50" y="615" width="154.58" height="160" as="geometry" />
        </mxCell>
        <mxCell id="P3MkR0HjccSfX4yVVzjA-70" value="&lt;font style=&quot;font-size: 20px;&quot;&gt;#1&lt;br&gt;Размер: 45x45&lt;br&gt;Статус: не начат&lt;br&gt;Прогресс: 0%&lt;/font&gt;" style="text;html=1;align=left;verticalAlign=middle;whiteSpace=wrap;rounded=0;container=0;" vertex="1" parent="P3MkR0HjccSfX4yVVzjA-170">
          <mxGeometry x="230" y="215" width="190" height="160" as="geometry" />
        </mxCell>
        <mxCell id="P3MkR0HjccSfX4yVVzjA-71" value="&lt;font style=&quot;font-size: 20px;&quot;&gt;#2&lt;br&gt;Размер: 35x10&lt;br&gt;Статус: начат&lt;br&gt;Прогресс: 36%&lt;/font&gt;" style="text;html=1;align=left;verticalAlign=middle;whiteSpace=wrap;rounded=0;container=0;" vertex="1" parent="P3MkR0HjccSfX4yVVzjA-170">
          <mxGeometry x="239" y="405" width="190" height="160" as="geometry" />
        </mxCell>
        <mxCell id="P3MkR0HjccSfX4yVVzjA-72" value="&lt;font style=&quot;font-size: 20px;&quot;&gt;#3&lt;br&gt;Размер: 45x21&lt;br&gt;Статус: завершен&lt;br&gt;Прогресс: 100%&lt;/font&gt;" style="text;html=1;align=left;verticalAlign=middle;whiteSpace=wrap;rounded=0;container=0;" vertex="1" parent="P3MkR0HjccSfX4yVVzjA-170">
          <mxGeometry x="230" y="600" width="190" height="160" as="geometry" />
        </mxCell>
        <mxCell id="P3MkR0HjccSfX4yVVzjA-36" value="Простейшие" style="rounded=1;whiteSpace=wrap;html=1;container=0;fontStyle=1;fontSize=16;" vertex="1" parent="P3MkR0HjccSfX4yVVzjA-170">
          <mxGeometry x="50" y="159" width="111.63570225745639" height="25" as="geometry" />
        </mxCell>
        <mxCell id="P3MkR0HjccSfX4yVVzjA-37" value="Лёгкие" style="rounded=1;whiteSpace=wrap;html=1;container=0;fontStyle=1;fontSize=16;" vertex="1" parent="P3MkR0HjccSfX4yVVzjA-170">
          <mxGeometry x="189.72204105902568" y="159" width="111.63570225745639" height="25" as="geometry" />
        </mxCell>
        <mxCell id="P3MkR0HjccSfX4yVVzjA-40" value="Средние" style="rounded=1;whiteSpace=wrap;html=1;container=0;fontStyle=1;fontSize=16;" vertex="1" parent="P3MkR0HjccSfX4yVVzjA-170">
          <mxGeometry x="330.58019920395907" y="159" width="111.63570225745639" height="25" as="geometry" />
        </mxCell>
        <mxCell id="P3MkR0HjccSfX4yVVzjA-41" value="Сложные" style="rounded=1;whiteSpace=wrap;html=1;container=0;fontStyle=1;fontSize=16;" vertex="1" parent="P3MkR0HjccSfX4yVVzjA-170">
          <mxGeometry x="477.535484466112" y="159" width="111.63570225745639" height="25" as="geometry" />
        </mxCell>
        <mxCell id="P3MkR0HjccSfX4yVVzjA-168" value="" style="shape=image;verticalLabelPosition=bottom;labelBackgroundColor=default;verticalAlign=top;aspect=fixed;imageAspect=0;image=https://static.nonograms.ru/files/nonograms/small/pirati3_1_0.png;container=0;" vertex="1" parent="P3MkR0HjccSfX4yVVzjA-170">
          <mxGeometry x="56" y="225" width="154.58" height="160" as="geometry" />
        </mxCell>
        <mxCell id="P3MkR0HjccSfX4yVVzjA-206" value="Решенные" style="rounded=1;whiteSpace=wrap;html=1;container=0;fontStyle=1;fontSize=16;" vertex="1" parent="P3MkR0HjccSfX4yVVzjA-170">
          <mxGeometry x="939.995484466112" y="159" width="111.63570225745639" height="25" as="geometry" />
        </mxCell>
      </root>
    </mxGraphModel>
  </diagram>
  <diagram id="JPTVP-gUR1dnb5GDgxod" name="Решение">
    <mxGraphModel dx="4924" dy="2206" grid="1" gridSize="10" guides="1" tooltips="1" connect="1" arrows="1" fold="1" page="1" pageScale="1" pageWidth="827" pageHeight="1169" math="0" shadow="0">
      <root>
        <mxCell id="0" />
        <mxCell id="1" parent="0" />
        <mxCell id="glLumCabKYNt1pLh63lK-1" value="" style="group" vertex="1" connectable="0" parent="1">
          <mxGeometry x="-530" y="860" width="1060" height="805" as="geometry" />
        </mxCell>
        <mxCell id="glLumCabKYNt1pLh63lK-2" value="" style="rounded=0;whiteSpace=wrap;html=1;container=0;" vertex="1" parent="glLumCabKYNt1pLh63lK-1">
          <mxGeometry width="1060" height="805" as="geometry" />
        </mxCell>
        <mxCell id="glLumCabKYNt1pLh63lK-3" value="" style="shape=image;verticalLabelPosition=bottom;labelBackgroundColor=default;verticalAlign=top;aspect=fixed;imageAspect=0;image=data:image/png,iVBORw0KGgoAAAANSUhEUgAAAk8AAAHeCAYAAACCFe8VAAAAAXNSR0IArs4c6QAAAARnQU1BAACxjwv8YQUAAAAJcEhZcwAADsMAAA7DAcdvqGQAADuFSURBVHhe7d17aGR3/f/xV0pREbTFigqtl3G7ZmpBjwqL0sB2u7p13ICZUkkM9VKSavvriUm80VkjDJjuFG+ZmNOL7YR6KTHLt3QiZB273UsDU5QFdRRqJ+6uB2sX66XS+kdRKM3vj2SyM5/s7ezO53NmMs8HHLCfz6lvPj1nznnlc858pmtlZWVFAAAAOC9dZnjq6uqq/0cAAICOcq55pUvMBgAAAJzZGWeeXnzxxfpmIJLLL79c2WzWbAbO6bLLLpMkvfTSS2YXcE6cP7gYtfvWuWaeCE+wohaeBgcHzS5r5ubm1NfXZzZbtbCw4LSm63qKoeaRI0ckSbt37za7rJqbm3N+vrqspxhquq4nSfv375ccnz9xjNN1Tdf1FEPNubm58w5PPLYDAACIgPAEAAAQAeEJAAAgAsITAABABIQnAACACAhP6ExLGXme17j1FxSa+zVNqEK/Uc/zlFky92si52OstzregVk31QDAJcITOlL5iZJS0xVVKrWtKF+B0l5GZXPnZggP6aB8FdfrVVSZTqk0ai9gOB9jvaUHFSybjQCwORCe0JF6JivKba9vSWj4Hl9JlbTfxmxQYljz+4aVqG/bnlPQK1UPHLIyG+R8jJLC2YHVGa7RktkFAJsG4QkwhMdtRJmzWD6hk2abZbbGmBiaX5vlCpQyOwFgkyA8AWvCwwdVlZS4umF+yKKy9i9K6t6iK80uS9yPEQA2H8ITIEkq68GZqqSUdjc86rInnA1UkpTctbPxcZ417scIAJsR4QmQVJ7wVZKUms6px+y0ISwoM1OVun3lhhxFJ9djBIBNivCEjlee8OQvSsmRovGCtSVhQQPpQFWlFJgvkVvifIwAsIkRntDR6kPFvIsZoPrgVHEzA+R8jACwyRGe0LFqoSI1XXETKmrBqdtX0XFwcjZGAOgAhCd0pPpQ4eQxVn1wcvyoztkYAaBDEJ7QgdaWCJBUGt34kymehRW4a0sEaDlQekM9G6uMux+j6hfJ9FZfTq/OpB3/LAwA2Ed4QgfqUa7+Z1I2bM1/pHZq8cjTb81/pOZ+jDrbOB3NtgGAC4QnAACACAhPAAAAERCeAAAAIiA8AQAAREB4AgAAiIDwBAAAEAHhCQAAIIKulZWVlYaGri5J0osvvljfDERy+eWXK5vNms3AOV122WWSpJdeesnsAs6J8wcXo3bfMqLRBoQnWFELT4ODg2aXNXNzc+rr6zObrVpYWHBa03U9xVDzyJEjkqQdO3aYXVa5HufCwoLTz4fWPiMua8bxmYzj/OmUY+mynmKoOTc3d97hicd2AAAAERCeAAAAIiA8AQAAREB4AgAAiIDwBAAAEAHhCVjKyPMyKpvt1oQq9HsamA3NjuZaysjzvMatvyDLVdc4GqPJ+bHU+ljd191kYjlfa8euccssmfsBjQhP6HChCveVzEa7lh5UsGw2Nl/5iZJS0xVVKrWtKF+B0i5u8o7G2CiGYympPJGOYaybTyzna3hIB+WruF6zosp0SqXRGII/2grhCR2qrIznyfPc3fjC2YHVv2xH3dzgeyYrym2vb0lo+B5fSZW039Jf1q7HuMr9sVy3lJG/mFSqN2n2IKI4zlclhjW/b1iJ+rbtOQW9UvXAIcuzXmhnhCd0qB7l1v7SLI64ufElhubX/roNlDI7HQuP27ktxDNG98dSkhQWNDBaUmp6Xl9ouPui2Wydr2e1fEInzTZgDeEJ6CDh4YOqSkpczd3+4pSVSQfSSNGYLUEzxXO+lrV/UVL3Fl1pdgFrCE9AxyjrwZmqpJR2c8O/CKEK/b5K3b5yQy5v6p0mnvM1nA1UkpTctbPxcR5Qh/AEdIjyhK+SpNR0Tj1mJ87b6gviKQXmuzJoqljO17CgzExVIhjjHAhPQAcoT3jyF6Ukj5kuUln7F5Pyiw5v6B0olvM1LGggHagqgjHOjfAEbHL1N6J5/ppugqqCdOO6QOmZqqSSfCdrE21usZyv9cGpQjDGuRGegE2sdiNKTVfc3Yg2tVPf7KvfVr/ll1JQqajCrMUFi+V8rQWnbl9FghPOE+EJ2KTqb0TOHn0AFyiW87U+OBF6EQHhCR2qtrCi8cjF4k8zrC8g6a2+CFudSVv8CYq1r1tLKo1u/PkJWz8l4naMNe6PJZotpvN1bSkELQdKb6jJKuM4s66VlZWVhoauLknSiy++WN8MRHL55Zcrm81qcHDQ7LJmbm5OfX19ZrNVCwsLTmu6rqcYah45ckSStGPHDrPLKtfjXFhYcPr50NpnxGXNOD6TcZw/nXIsXdZTDDXn5uaUzWYlSUY02oCZJwAAgAgITwAAABEQngAAACIgPAEAAERAeAIAAIiA8AQAABAB4QkAACACwhMAAEAELJIJK2qLZAJRXXbZZZKkl156yewCzonzBxfjfBfJJDzBilp4crm6sOsVohVDTdf1FEPNOFaIVgzjdF1PMayE3UkrjLsep+uarusphpoLCwvnHZ54bAcAABAB4QkAACACwhMAAEAEhCcAAIAICE8AAAAREJ7QYkIV+j0NzIZmR3MtZeR5XuPWX5C9qqvjMmtmlsz9migsaMAcozeggrVBxjBG01JGnpdR2Wy3ZrOerzFwfr6eTu0cdnQOOTlfW+VzafdzUp7YOEabYyU8obUsPahg2WxsvvITJaWmK6pUaltRvgKlbV3IwkM6KF/F9XoVVaZTKo3au6CEhw9KI8W6MVYU9FYVpO1cTOIYY6NQhftKZqNdm/V8jYHz8/U0yhNpJ8dzlaPzNe7PZVjQwKiDcUpStzHOtS233dzx4hGe0BLC2YHVvxIcfch6Js0PVELD9/hKqqT9Ni7UiWHN7xtWor5te05Br1Q9cMjKDEJiaF7zQw0V1TMZKCUpPG6hYgxjXFVWxvPkee5ufJv+fI2B8/PVtJSRv5hUqjdp9jSZ4/M1ts+lVgPiXYGqvSmlzK42R3hCS0gMza/9lbB6sYyTkwt1veUTOmm22RJWLV8sz8DqGHuUW/sLszhi+8a3qqPPV5dcna9rsyOp6Xl9oTG/WeD+fD0jq5/LtZk8+SpO7ja72h7hCVgTHj6oqqTE1davnmvK2r8oqXuLrjS7rFj7K7DbV874C98e12PsHO7PV9dcna9lZdKBNFK08ninNdn/XIazA/IXUwrMWS+blgOl6993mrD3UJvwBEiSynpwpioppd2OLqDhbKCSpOSunXYvLusv4qZ1cFdRFYcXM2dj7Djuz1dnnJ6voQr9vkrWA1prsf65XMooPVNVajqnHrPPkp5J412noq/kom/tixWEJ0BSecJXSXL3YQ8LysxUJRcX7cSw5msvTirj7htMLsfYYZyfry45PF9XXxB3PDsSN9ufy7VHoMm4Z/ISw8qNJKXlgzpk4fwhPKHjlSc8+Yty92EPCxpIB6rK/UU7MZST311VMGtvOluKd4ybnfPzNUZ2z9ey9i8m5Rc3YQA9Ewefy/DwQVV7gw0v/8chccNHlVRVJ541ey4e4Qkdrf5G5OTDXn/xqsR40T5m8UXcVhnjJuT8fG0V1s7X1aUQ6tcESs9UJZXke5tsLS2Xn8tF31hraXWmtDqTtrbu0mk9e0JVs61JCE/oWLUbUWq64uZGVLt4dfsq2r54ndFJnViWtDVp5a/O1hjj5uT8fG0JNs/XU996q99WvwGXUlCpWH7fyiGHn8tT30St31a/lZpcW8fL1Yzp6jdR7bwXSHhCR6q/ETn5INdfvJxckEMV+je+K7L6rkxS/pCFy6fzMXYO5+erczGcr52iEz6XYUED5izh2kvryZEvWAmLhCe0hPVFB43pXTvT5mtf05VUGm2csl/dmr9qc+1r5Ru+Sru2NX+l34R27tKGRxL+YkpBZV7DFq6g7sdYU1t00HjkYvHxwGY/X91zf77Gx+35Gt/n0qFEUglzfKOrq/LbmqXtWllZWWlo6OqSJL344ov1zUAkl19+ubLZrPr6+swuaxYWFpzWUww1XddTDDWPHDkiSdqxY4fZZZXrcbqup7Wag4ODZrM1c3NzzscYx/kT17F0WdN1PcVQc2FhQdlsVpJkRKMNmHkCAACIgPAEAAAQAeEJAAAgAsITAABABIQnAACACAhPAAAAERCeAAAAImCdJ1hRW+cJiOqyyy6TJL300ktmF3BOnD+4GOe7zhPhCVawSKYdrusphppxLHKoGMbpup5iqOm6nmI6f+IYp+uarusphposkgkAAGAJ4QkAACACwhMAAEAEhCcAAIAICE8AAAAREJ7QAkIV+j15XuOWWTL3a6KlzIZ6Xn9BobmfFavjHZh1U02qjTejstluTQxjrFk7tm5qxzBOR8eyPLHxM+nksyl3Y4zl2qPTXH+cXXtUN2aL/33N8Vkfo/vjSHhC/MJDOihfxUpFldo2nVJp1N5NqfxESanpunqVonwFStu8oNQsPahg2Wy0KVThvpLZaJfzMa4JCxoYdThW5+N0fCy7jc/l2pbbbu7YTA7HGMO1J5wdkDcayi/GcO2RVJ5IWz9nnV9fYziOhCfELzGs+X3DStS3bc8p6JWqBw5Z+WulZ9K8ASQ0fI+vpErab+mvlXB2YPUvImc397IynifPs3+xrHE/xnqhCncFqvamlDK7msz9ON0fS/diGKPza09ZD85UlRzJaXi9aELD+wKlVFJg6Ua/bikjfzGpVG/S7Gkq59dX58eR8IRWt3xCJ802y8LjNj5qUmJofu2vosD6zX1Vj3Jrf4UVR+xeLGvcj/GU8kRagXwVJ3ebXU3nfpzuj6V7LTZGG9eesKpQUuLqhtu8pCu1pdvejV46NSubmp7XF8zyDtm6vp6RjeNIeELrKmv/oqTuLbrS7LIkPHxQ1dNe2NDqwtkB+YspBeZfn7g4y4HS9e+RTFh56NJiLF57nj2hqtkmSUooudXejV4qK5MOpJGi5UeuZ+b++mrxOBKe0KrC2UAlScldOx3dDFen06WUdsd0ccEFWsooPVNVajqnHrMPF6xnsv6dlYoqRV/JRd/yi7/xs3rteccWJZ3PvoQq9PsqdfvKDTV9ROfJ/fXV6nEkPKElhQVlZqqSww97ecJXSeIG3G7WHkUkY/yLumMkhpUbSUrLB3XI5b3fJdvXnsSw/F6pOpNRof6/YVhQYGmWZPUF8XhnZZ1fX20fR8ITWk5Y0EA6UFXuPuzlCU/+orgBt6Hw8EFVewPNW7pAolHiho8qqapOPGv2bAKOrj09kxUVR6QgXfc49C7po72StiabXLes/YtJ+UVHoeU0nF9fHR1HwhNaR/1JX3HzYa//YHMDblOLvrG+y+pfudWZtPW1XjrOGd/ZaXOOrz2nvnCwtu1L6sSilEw0e95JkqqNQc3zlJ6pSirJ9+yuv+T8+urwOBKe0BpqJ323r6Llk76m9sFOTVfcfLDRdBtuQnXfgEuOFFWxviZRZ1l9V8fdeytOxHDt2WBpv0pKyW/6dejUNxjrt9VvM6YUVCqqWJqdcX59dXwcCU+IX/1Jb+mDbKr/YHNzBQxhQQPmjMTai/nJkS9YvzE5E8O1x3Rq0Uz7N3xXnF9fYziOhCfErvYV1g1fi17bmr9C7NpXWCWVRjfWs/WzBesLKxqPlexNm9cWHTSm6S0+ynI/xni4H6fjY5lIKmF+HkdXV422N4vgeIyxXHvWbvR1NdIHPqpiZb5u0cx25/76Gsdx7FpZWVlpaOjqkiS9+OKL9c1AJJdffrmy2az6+vrMLmsWFhac1lMMNV3XUww1jxw5IknasWOH2WWV63G6rqcYarqup5jOnzjG6bqm63qKoebCwoKy2awkyYhGGzDzBAAAEAHhCQAAIALCEwAAQASEJwAAgAgITwAAABEQngAAACIgPAEAAETAOk+worbOExDVZZddJkl66aWXzC7gnDh/cDHOd52nM4YnAACATnTB4YlZA1yMbDarqakpsxkAgJY1Pj4uXWx4GhwcrO+ybm5uzmlN1/UUQ825uTmny9urbon7qakpjY2Nmd3W5PN5p/UUQ03X9RRDzXw+L0lOayqmcbqspxhquq6nmM6ffD6vv/3tbyoUCnrDG96gAwcO6F3vepde85rXmLtesJWVFf3zn//UrbfeqieffFJ333238zG6rKcYaubz+fMOT7wwDgDARfJ9X3v27NHzzz+vT33qU3r66afNXS7Kyy+/rKGhIT311FNKpVJmNxwjPAEAcJHe/va36+abb1Y2m9Wf/vQnffOb39ShQ4fM3S7IsWPHdMcdd2hpaUm33HLL+uwI4kN4AgCgCd75zndqeHhYvu/rd7/7nX74wx/q8OHD5m6R/OEPf9D999+vffv2KZ1O67bbbtN1111n7gbHCE8AADTJm9/8Zn3nO99RX1+fyuWy8vm8KpWKudt5OX78uH70ox9pdnZW119/vfbu3av3v//95m6IAeEJAIAmu/fee/XpT39ajz/+uIaHh/Xyyy/r1VdfNXc7o//+97/au3evZmZmtG3bNj3++OO68sorzd0QE8ITTgkLGvA8eQ3bgAqhuSMA4Fy+/vWva2JiQk8//bS2bdumP//5z+YuZ/SZz3xGjz32mAYGBjQ7O2t2I2aEJ6wLDx+URoqqVCrrW9BbVZD2lFky9wYAnM1b3/pWDQ4OamJiQs8884xGR0f11FNPmbs1eO6553TLLbfo8OHD6u/v19jYmN7xjneYuyFmhCesSwzNa34o0dDWMxkoJSk8zvQTAES1ZcsWfe5zn9NXvvIVHT16VPfee6+efPJJczdJ0h//+Efl83nNz8+rt7dXQ0ND+tCHPmTuhhZAeMLZhVURmwDgwl111VXau3ev+vr6dOTIET3wwAP67W9/27DPsWPH9Mgjj+iBBx7Qjh07tGfPHm3btq1hH7QOwhPOIlThrkDVbl85Y0YKAHD+Lr30Uj300EP65Cc/qcXFRX31q1/Vv//9b7366qv6z3/+oyAI9P3vf1+e5+kXv/iFuru7zf8LtBDCEzZaf3E8rYO7iqrsGxbRCQAu3t13360vfelL+tWvfqWPfexjeuGFF3TnnXfq4YcfViqV0qOPPqpLL73U/NfQYghP2CgxrPm1F8ZzyvCNOwBokiuuuEK33nqr7rrrLj399NP67Gc/qwMHDuimm27SxMSE3va2t63/xixaF+EJZ5UYysnvriqYLZtdAIALsHXrVn34wx/W//73P/3yl7/UP/7xD11zzTW8HN5GCE84P8d4cRwAmuHYsWP69a9/rde+9rX6+Mc/rre85S165pln9Jvf/MbcFS2K8IRzOKkTy5K2JnnvCQAu0gsvvKCHH35Y99xzj6699lr95Cc/0a5du/TYY49pcnJSzz//vFZWVsx/DS2G8IQ1oQr9G99tKk/4Kikpf6insQMAENk3vvEN/eAHP9BHPvIRPfHEE7riiit077336tZbb1WpVNLNN9+sV155xfzX0GIIT1iT0M5dUpBu/HkWfzGloDKvYaadAOCCvfLKK7rtttv085//XL29vfrud7+rN73pTbrkkkv0xje+Ub7v68tf/rIqlYo+8YlPaHl52fy/QAshPGFdYmi+4adZVrecmHMCgAv33HPPac+ePVpYWNCOHTt0++2364Mf/GDDPlu3btUtt9yi22+/XUeOHNHevXt19OjRhn3QOghPAABYcuLECf34xz/W9773PW3btk133nmnrr/+enM3SdJ73/tejY2NaWBgQIuLi5qdneUl8hZFeAIAwIK///3vmpub0+TkpK655hpNT0/ruuuuM3drcNVVV+mRRx7RDTfcoH379imfz+vZZ581d0PMCE8AAFjw7W9/W5OTk7r22mt19OhRvfvd7zZ3OaOf/vSnuummmzQ/P6+hoSGzGzEjPAEA0GR33nmnfvazn+nGG29UoVDQ61//el1yyfnfcl/3utdpz549GhkZ0dGjR3XjjTfq5MmT5m6IyfkfSQAAcFb/+te/9LWvfU0LCwvq6enR2NiYPM8zdzsvV199tT7/+c9raGhITz75pPbs2aPf//735m6IAeEJAIAm+Mtf/qJCoaAgCPSBD3xAX/ziF3XDDTeYu0Xyvve9T3fccYf6+/tVLBb10EMP6amnnjJ3g2OEJwAALtJf//pXPfroo8pms3rPe96jb33rW9q5c6e52wXZunWr7r//fm3fvl2PPPKIpqamzF3gWNeKsQ587decs9lsfTMQSTab5QMOAGgr4+PjknTOn8g5a3gaHBys77Jubm5OfX19ZrM1CwsLTusphpqu62mtZi08jY2Nmd3W5PN5p/UUQ03X9RRDzXw+L0lOayqmcbqspxhquq6nmM6ffD6vv/3tbyoUCnrDG96gAwcO6F3vepde85rXmLtesJWVFf3zn//UrbfeqieffFJ333238zG6rKcYaubz+fMOTzy2AwDgIvm+rz179uj555/Xpz71KT399NPmLhfl5Zdf1tDQkJ566imlUimzG44RngAAuEhvf/vbdfPNNyubzepPf/qTvvnNb+rQoUPmbhfk2LFjuuOOO7S0tKRbbrllfXYE8SE8AQDQBO985zs1PDws3/f1u9/9Tj/84Q91+PBhc7dI/vCHP+j+++/Xvn37lE6nddttt51zlXLYR3gCAKBJ3vzmN+s73/mO+vr6VC6Xlc/nValUzN3Oy/Hjx/WjH/1Is7Ozuv7667V37169//3vN3dDDAhPAAA02b333qtPf/rTevzxxzU8PKyXX35Zr776qrnbGf33v//V3r17NTMzo23btunxxx/XlVdeae6GmGyC8BSq0O9pYDY0O+xZysjzMiqb7U21Oi7Pa9wyS+Z+TbSU2VDP6y/I4X9ZANg0vv71r2tiYkJPP/20tm3bpj//+c/mLmf0mc98Ro899pgGBgY0OztrdiNm7R+elh5UsGw22hSqcF/JbGy+8JAOylexUlGltk2nVBq1FxTLT5SUmq6rVynKV6C09aAIAJvPW9/6Vg0ODmpiYkLPPPOMRkdHz7k6+HPPPadbbrlFhw8fVn9/v8bGxvSOd7zD3A0xa9vwFM4OrM6MjDoIMpKksjKeJ89LuwlriWHN7xtWor5te05Br1Q9cMjKbFDPZEW57fUtCQ3f4yupkvbbnPECgE1qy5Yt+tznPqevfOUrOnr0qO699149+eST5m6SpD/+8Y/K5/Oan59Xb2+vhoaG9KEPfcjcDS2gbcNTYmh+bXYkkJsVL3qUW5uRKY4kzU63lk/I9W9rh8dtxDUA2Pyuuuoq7d27V319fTpy5IgeeOAB/fa3v23Y59ixY3rkkUf0wAMPaMeOHdqzZ4+2bdvWsA9aR9uGp85U1v5FSd1b5Oq1wfDwQVUlJa5umAMDAERw6aWX6qGHHtInP/lJLS4u6qtf/ar+/e9/69VXX9V//vMfBUGg73//+/I8T7/4xS/U3d1t/l+ghRCe2kg4G6gkKblrZ+PjPGvKenCmKiml3Q2P8wAAF+Luu+/Wl770Jf3qV7/Sxz72Mb3wwgu688479fDDDyuVSunRRx/VpZdeav5raDGEp3YRFpSZqUrdvnJDjqLThK+SpNR0Tj1mJwAgsiuuuEK33nqr7rrrLj399NP67Gc/qwMHDuimm27SxMSE3va2t63/xixaF+GpHYQFDaQDVZVSYL5Ebkl5wpO/KCVHisZL5ACAi7F161Z9+MMf1v/+9z/98pe/1D/+8Q9dc801vBzeRghPra4+OFXczADVB6d5R7NcANApjh07pl//+td67Wtfq49//ON6y1veomeeeUa/+c1vzF3RoghPrawWnLp9FR0Hp9R0heAEAE32wgsv6OGHH9Y999yja6+9Vj/5yU+0a9cuPfbYY5qcnNTzzz+vlZUV819DiyE8tar64OT4UV1q2lzvCQDQDN/4xjf0gx/8QB/5yEf0xBNP6IorrtC9996rW2+9VaVSSTfffLNeeeUV819Di2nb8LS+SKa3+lJzdSZt+edEaotkekrPVCWV5Fv8yZTaEgFaDpQ2fzLFs7HK+NoyCJJKoxvr2f85GgDYvF555RXddttt+vnPf67e3l5997vf1Zve9CZdcskleuMb3yjf9/XlL39ZlUpFn/jEJ7S87GI1Zlyotg1PpxbJNDZrszSnFsk0NxuzNGcc39rW/EdqZx7f6ubmsSEAbDbPPfec9uzZo4WFBe3YsUO33367PvjBDzbss3XrVt1yyy26/fbbdeTIEe3du1dHjx5t2Aeto23DEwAAre7EiRP68Y9/rO9973vatm2b7rzzTl1//fXmbpKk9773vRobG9PAwIAWFxc1OzvLS+QtivAEAIAFf//73zU3N6fJyUldc801mp6e1nXXXWfu1uCqq67SI488ohtuuEH79u1TPp/Xs88+a+6GmBGeAACw4Nvf/rYmJyd17bXX6ujRo3r3u99t7nJGP/3pT3XTTTdpfn5eQ0NDZjdiRngCAKDJ7rzzTv3sZz/TjTfeqEKhoNe//vW65JLzv+W+7nWv0549ezQyMqKjR4/qxhtv1MmTrn8SHmdy/kcSAACc1b/+9S997Wtf08LCgnp6ejQ2NibP88zdzsvVV1+tz3/+8xoaGtKTTz6pPXv26Pe//725G2JAeAIAoAn+8pe/qFAoKAgCfeADH9AXv/hF3XDDDeZukbzvfe/THXfcof7+fhWLRT300EN66qmnzN3gGOEJAICL9Ne//lWPPvqostms3vOe9+hb3/qWdu7cae52QbZu3ar7779f27dv1yOPPKKpqSlzFzhGeAIA4CIFQaC9e/fqbW97m/7v//5P1157rbnLRXn961+v2dlZXXfddSqVSmY3HOtaMX5Ep6urS5KUzWbrm4FIstksfx0BANrK+Pi4JJ3z9wXPGp4GBwfru6ybm5tTX1+f2WzNwsKC03qKoabrelqrWQtPY2NjZrc1+XzeaT3FUNN1PcVQM5/PS5LTmoppnC7rKYaarusppvMnrnG6rOm6nmKomc/nzzs88dgOAAAgAsITAABABIQnAACACAhPAAAAERCeAAAAImjb8FSe8OR5xjZRNnezYykjz8vIbrVQhf6NY8wsmfs10VJmQz2vv6DQ3A8AgA7WpuGprP2LKQWViiq1regrueg7uNmHKtznYIGy8JAOylexfozTKZVGPQ3M2hlh+YmSUtN19SpF+QqUth4UAQBoH20annqUq+TUU9+UGFZuJCktn5Cd350uK+N58ry0gmWzz4LEsOb3DStR37Y9p6BXqh44ZCUg9kxWlNte35LQ8D2+kippv80ZLwAA2kibhqfTOxlWzaYm6lFubUamOJI0O92yFhDPLDxuI64BANB+Nk94WsrIX5RS08aM1KZS1v5FSd1bdKXZZUl4+KCqkhJXN8yBAQDQsdo+PK2/OD4qBRXzsdPmEs4GKklK7trZ+DjPmrIenKlKSmn3Jv7vCgBAFG0fnnomay8379Z+l9+4cy0sKDNTlbp95YYcRacJXyVt9tk8AACiafvwdEqPctMpaTFQYbO9nhMWNJAOVFVKgfkSuSXlCU/+opQcKW7q2TwAAKLaROGppqoTz5ptbaw+OJnfMLSkPjjNO5rlAgCgXWyq8LT6jbCktrzD7GlTteDU7avoODilpisEJwAATqM9w9NSZuO7TbV3gnp9DW+Ge359cHL8qC41vblfvAcA4GK0Z3javlupRb/xZ0TSgTRSVGXS1vxMbZFMT+mZqqSSfIs/mVJbIkDLgdLmT6Z4NlYZX1sGQVJpdGM9+z9HAwBAe2jP8FS3YGX9Zvcx0+lrViwtj5AYmt9Qx+5Yzzy+1c3NY0MAAFpdm4YnAACAeBCeAAAAIiA8AQAAREB4AgAAiIDwBAAAEAHhCQAAIALCEwAAQARdKysrKw0NXV2SpGw2W98MRJLNZjU1NWU2AwDQssbHxyVJRjTa4Kzhqa+vr77LuoWFBac1XddTDDVd19NazVp4GhsbM7utyefzTusphpqu6ymGmvl8XpKc1lRM43RZTzHUdF1PMZ0/cY3TZU3X9RRDzXw+f97hicd2AAAAERCeAAAAIiA8AQAAREB4AgAAiIDwBAAAEEFzwtNSRp7nNW79BYXmflaEKvR7Gph1U02qjTejstlujaMxxnocAQBoD00JT+UnSkpNV1Sp1LaifAVKuwgYSw8qWDYbbQpVuK9kNtrlaIyxHkcAANpEU8JTz2RFue31LQkN3+MrqZL2L9W3N084O7A6MzLqKsiUlfE8eV7aSZBRDGOM4zgCANBumhKeziY8buehT2Jofm12JFDK7LSiR7m1GZniSNLstML9GM/M1nEEAKDdWAtP4eGDqkpKXJ0wu9BGOI4AADSyFJ7KenCmKiml3Q2PgdBeOI4AAJishKfyhK+SpNR0Tj1mJ9oGxxEAgI2aHp7KE578RSk5UjRePkY74TgCAHB6TQ1P9Tfc+SHekWlXHEcAAM6saeGpdsNNTVe44bYxjiMAAGfXlPBUf8PlEU/74jgCAHBuTQhPZe1fXP1fpVHjpz08z9rPmKwvIOmtvtRcnUlb/jmR2iKZntIzVUkl+Wv/nLG0gKTbMcZzHAEAaDdNCE+nFo88/Wbnm1qnFpA0tn3DsvOw6czjtDVL43aMZx7f6mbnOAIA0G6aEJ4AAAA6B+EJAAAgAsITAABABIQnAACACAhPAAAAERCeAAAAIiA8AQAARNC1srKy0tDQ1SVJymaz9c1AJNlsVlNTU2YzAAAta3x8XJJkRKMNzhqe+vr66rusW1hYcFrTdT3FUNN1Pa3VrIWnsbExs9uafD7vtJ5iqOm6nmKomc/nJclpTcU0Tpf1FENN1/UU0/mTz+fXb7qucH1tvvrjeK7wxGM7AACACAhPAAAAERCeAAAAIiA8AQAAREB4AgAAiKD54WkpI8/LqGy2WxOq0O9pYDY0O5orLGjA8+Q1bAMqWC67ytEYlzLG+Dx5/QVZrgoAQFtpcngKVbivZDbatfSggmWzsfnCwwelkaIqlcr6FvRWFaQ9ZZbMvZvM0RjLT5SUmj41vkqlKF+B0k7DMAAAra1J4amsjOfJ89JObvKSFM4OrM6MjLoJa4mhec0PJRraeiYDpSSFx+3MzbgeY89kRbnt9S0JDd/jK6mS9tsOiAAAtIkmhace5dZmK4ojSbPTisTQ/NrsyGqAiUVYtfpIqyXGuMZWQAQAoN00KTx1olCFuwJVu33ljBmpzSQ8fFBVSYmrN+8YAQCIgvAU1fqL42kd3FVUZd+wNm+sKOvBmaqklHY3PM4DAKBzEZ6iSgxrfu0RZU4Zh9+4c6884askKTWdU4/ZCQBAhyI8XYTEUE5+d1XB7Ob7Llp5wpO/KCVHisZL5AAAdDbCUzMcs/viuGv1wcn8hiEAAJ2O8HRRTurEsqStyU3z3lMtOKWmKwQnAABOg/B0XkIV+je+27T6TlBS/tDmeCOoPjjxqA4AgNNrUniqLZLpKT1TlVSSv/bPtlbfXl9A0lt9qbk6k7b4cyIJ7dwlBenGny7xF1MKKvMatjRB43aMZe1fXP1fpVHzZ2g8xz+5AwBA62pSeDq1SKa52ZrBOLWApLFZWjrg9PXsfgvt9DVtjfHMx9DFWAEAaBdNCk8AAACdgfAEAAAQAeEJAAAgAsITAABABIQnAACACAhPAAAAERCeAAAAIuhaWVlZaWjo6pIkTU1N1TcDkYyPj3MOAQDayvj4uCTJiEYbMPMEAAAQwRlnnrLZrPr6+uq7rFtYWHBa03U9xVDTdT2t1cxms5qamtLY2JjZbU0+n3daTzHUdF1PMdTM5/OS5LSmYhqny3qKoabreorp/Mnn8+szFq5wfW2++uPIzBMAAEATEZ4AAAAiIDwBAABEQHgCAACIgPAEAAAQQfPD01JGnpdR2Wy3JlSh39PAbGh22LWUkee5qhvDGJ0fRwAA2kOTw1Oown0ls9GupQcVLJuNloUFDYw6HKfzMcZwHAEAaBNNCk9lZTxPnpd2dpMPZwfkeZ48lyFGWg0WdwWq9qaUMruazP0Y3R9HAADaTZPCU49ylYoqlYqKI0mz04rE0LwqlYoqlcB6iKlXnkgrkK/i5G6zq+ncj9H9cQQAoN00KTx1hnB2QP5iSsG+YSXMTgAA0BEIT+drKaP0TFWp6Zx6zD4AANAxCE/nY+0F8eRIUbntZicAAOgkhKfzEB4+qGpvoPkhHtYBANDpCE/na9Ff/ebb+uarJKk6k5bnecosmf8CAADYjAhP5+HUt97qt9VvwCVHiqpUKjzOAwCgQxCeAAAAImhSeKotrugpPVOVVJK/9s+2HmetLyBpPD7z+gty+CMmVrkfo/vjCABAu2lSeDq1uKK52XqcdfpHaRVVnK3BtDpmmy+Rux+j++MIAEC7aVJ4AgAA6AyEJwAAgAgITwAAABEQngAAACIgPAEAAERAeAIAAIiA8AQAABAB4QkAACCCrpWVlZWGhq4uSVI2m61vBiLJZrOampoymwEAaFnj4+OSJCMabXDW8DQ4OFjfZd3c3Jz6+vrMZmsWFhac1lMMNV3X01rNWngaGxszu63J5/NO6ymGmq7rKYaa+XxekpzWVEzjdFlPMdR0XU8xnT/5fH79pusK19fmqz+O5wpPPLYDAACIgPAEAAAQAeEJAAAgAsITAABABIQnAACACNo0PIUq9HvyvMYts2TuZ8lSRp6XUdlst6o2Zkd1YxkjAACtrz3DU3hIB+WrWKmoUtumUyqNehqYDc29myxU4b6S2WhdeSKtYNlstSWeMQIA0A7aMzwlhjW/b1iJ+rbtOQW9UvXAIdmJT2VlPE+e5zLErFnKyF9MKtWbNHuaLMYxAgDQJtozPJ3N8gmdNNuaoke5tVmu4ojtEFMnLGhgtKTU9Ly+0JAWbYhpjAAAtJFNFJ7K2r8oqXuLrjS72lZZmXQgjRSV2272AQCAOGya8BTOBipJSu7a2fg4r22FKvT7KnX7yg1tjhEBALAZbI7wFBaUmalKmyhorL4gnlJgvtsFAABi1f7hKSxoIB2oqs0UNMrav5iUX8ypx+wCAACxau/wVB+cKpstaFQVpBvXsUrPVCWV5HuevP6CpW8VAgCAs2nf8FQLTt2+ipsuOJ361lv9tvoNuJSCSkWVTTPLBgBAe2nP8FQfnAgRAADAobYMT+Hhg6pK0nKgtPETLZ5na5Xx2gKSxuMzlz8LY10njBEAgIvTluEpMTS/4ZFW/TZv5Rt3p3+UVqlUnK3BtDpum48o4x8jAACtri3DEwAAQFwITwAAABEQngAAACIgPAEAAERAeAIAAIiA8AQAABAB4QkAACCCrpWVlZWGhq4uSVI2m61vBiLJZrOampoymwEAaFnj4+OSJCMabXDW8DQ4OFjfZd3c3JzTmq7raa1mX1+f2WzNwsKC03paq1kLT2NjY2a3Nfl83mk9xVDTdT3FUDOfz0uS05qKaZwu6ymGmq7rKabzJ5/Pr990XeH62nz1x/Fc4YnHdgAAABEQngAAACIgPAEAAERAeAIAAIiA8AQAABAB4allhSr0e/K8xi2zZO5n0VJGnudpYDY0ewAA6FiEp1YVHtJB+SpWKqrUtumUSqOOwkxY0MBoyWwFAKDjEZ5aVWJY8/uGlahv255T0CtVDxyS3fgUqnBXoGpvSimzCwCADkd4akfLJ3TSbGui8kRagXwVJ3ebXQAAdDzCU1spa/+ipO4tutLsapJwdkD+YkqBOesFAAAkwlN7CWcDlSQld+20E2yWMkrPVJWazqnH7AMAABLhqY2EBWVmqlK3r9yQhei09oJ4cqSo3HazEwAA1BCe2kFY0EA6UFX2HqeFhw+q2hto3kYwAwBgEyE8tbr64FSx/Dht0TfWlfJVklSdSbtfYwoAgBZFeGplteDU7atoOTglhuZPrSe1vgVKSUqOFFWpVHicBwAA4amF1QcnS4/qAABAdISnFhUePqiqJC0HShs/0cJPpgAAEB/CU4s6/WO0U5ubF7t7lHNWCwCA9kB4AgAAiIDwBAAAEAHhCQAAIALCEwAAQASEJwAAgAgITwAAABEQngAAACLoWllZWWlo6OqSJGWz2fpmIJJsNqupqSmzGQCAljU+Pi5JMqLRBmcNT4ODg/Vd1s3Nzamvr89stmZhYcFpPcVQ03U9rdWshaexsTGz25p8Pu+0nmKo6bqeYqiZz+clyWlNxTROl/UUQ03X9RTT+ZPP59dvuq5wfW2++uN4rvDEYzsAAIAICE8AAAAREJ4AAAAiIDwBAABEQHgCAACIoG3DU3nCk+cZ20TZ3M2OpYw8LyPb1TphjAAAtJs2DU9l7V9MKahUVKltRV/JRV9ef0GhuXtThSrcVzIbLeiEMQIA0H7aNDz1KFfJqae+KTGs3EhSWj6hk/XtTVNWxvPkeWkFy2afDZ0wRgAA2k+bhqfTOxlWzaYm6lFubQaoOJI0O53phDECANDKNk94WsrIX5RS08ZszWbSCWMEAKDFtX14Wn+pelQKKhXltpt7tL9OGCMAAO2i7cNTz2Ttherd2u/y22gOdcIYAQBoF20fnk7pUW46JS0GKtj9KlqMOmGMAAC0tk0UnmqqOvGs2bbZdMIYAQBoTZsqPIXHQ0lJbXmH2bN5dMIYAQBoZe0ZnpYyG9/7CQvKzFSlXl/DicauttQJYwQAoA21Z3javlupRb/xZ0vSgTRSVGXS1pf4awtIekrPVCWV5K/9c2bJ3LcJOmGMAAC0ofYMT3WLOdZv80M2p2NOX7NibemA09fbXGMEAKD9tGl4AgAAiAfhCQAAIALCEwAAQASEJwAAgAgITwAAABEQngAAACIgPAEAAETQtbKystLQ0NUlScpms/XNQCTZbFZTU1NmMwAALWt8fFySZESjDc4angYHB+u7rJubm3Na03U9rdXs6+szm61ZWFhwWk9rNWvhaWxszOy2Jp/PO62nGGq6rqcYaubzeUlyWlMxjdNlPcVQ03U9xXT+5PP59ZuuK1xfm6/+OJ4rPPHYDgAAIALCEwAAQASEJwAAgAgITwAAABEQngAAACIgPLWBcHZAnuetbwOzoblLc4QFDdTVadj6C7JUFQCAtkJ4ammhCv2e0gc+qmKlosraNj+UMHdsqtT0qVrr275h2a0KAEB7IDy1sPJEWoF8FQkuAAC0DMJTqwoLChal1P8jOAEA0EoIT63q2ROqKqUtxxvfd/K8jMrmvk1WGq2vN6ACLzsBALCO8NSiwuOhpJIOKlf37lFRfndJvq0AlRjWvPGuU9BbVZD2lFkydwYAoDMRnlrUybAqKSW/4eXwhIbv8ZVUSYGtb9wZeiYDpSSVnrAS1wAAaDuEpxZ1ZSJpNq1KJJWQVA1Pmj2W9Gh3r6RjVZYqAACA8NTqQlVjTyyhqsfMNgAAOhfhqUUlbviokqrq4GEjPYWrM0Cpj/U0tltzUieWpeSunXzrDwAAwlMLSwzL75WqM5m6b7uVlUkHqnb7+sL2xt2boTxhvhgeqtDvq7Th3SsAADoX4amF9UxWVByRgnRt2QBfpd7A2mrfVyaSxjIFa4t0VnJyNc8FAECrIzy1uMTQfOPPpEzaizEbavGzLAAAbEB4AgAAiIDwBAAAEAHhCQAAIALCEwAAQASEJwAAgAgITwAAABEQngAAACIgPAEAAETQtbKystLQ0NUlSZqamqpvBiIZHx/nHAIAtJXx8XFJkhGNNmDmCQAAIIIzzjxls1kNDg7Wd1k3NzfntObc3Jz6+vrMZqsWFhac1nRdT2s1s9mspqamNDY2ZnZbk8/nndZTDDVd11MMNfP5vCQ5ramYxumynmKo6bqeYjp/8vn8+oyFK1xfm6/+ODLzBAAA0ESEJwAAgAgITwAAABEQngAAACIgPAEAAERAeLoQSxl5XkZls72pQhX6PXle45ZZMvdrorCgAaOe5w2oEJo7AgDQuQhPkYUq3FcyG5svPKSD8lWsVFSpbdMplUY9DczaSTPh4YPSSPFUvUpFQW9VQdpyaAMAoI0Qns5bWRnPk+elFSybfRYkhjW/b1iJ+rbtOQW9UvXAIdmIT4mhec0PNVRUz2SglKTwuI2KAAC0H8LTeetRbm02pjiSNDvdWj6hk2abLWHVSlADAKBdEZ7aSln7FyV1b9GVZpcVoQp3Bap2+8oZM1IAAHQqwlMbCWcDlSQld+1sfJzXbOsvjqd1cFdRFfPxIQAAHYzw1C7CgjIzVcnFLFBiWPNrjyhzyvCNOwAA6hCe2kFY0EA6UFUpBY5ngRJDOfndVQWzdhdmAACgXRCeWl19cKrk1GP2u3KMF8cBABDhqcXVglO3r2JswemkTixL2pp0OuMFAECrIjy1qvrg5ORRXahC/8Z3m8oTvkpKyh+KJ7oBANBqCE/nrbZIpqf0TFVSSb7Fn0wJDx9UVZKWA6U3/GSKjVXGE9q5SwrSjXX8xZSCyryG7ac3AADaAuHpvJ1aJNPcctvNfS9eYmh+Q536zVwJvBlOXzOux4UAALQmwhMAAEAEhCcAAIAICE8AAAAREJ4AAAAiIDwBAABEQHgCAACIgPAEAAAQQdfKyspKQ0NXlyQpm83WNwORZLNZTU1Nmc0AALSs8fFxSZIRjTY4a3gaHBys77Jubm5OfX19ZrM1CwsLTusphpqu62mtZi08jY2Nmd3W5PN5p/UUQ03X9RRDzXw+L0lOayqmcbqspxhquq6nmM6fuMbpsqbreoqhZj6fP+/wxGM7AACACAhPAAAAERCeAAAAIiA8AQAAREB4AgAAiGAThKdQhX5PA7Oh2WHPUkael1HZbG+y8oQnzzO2CYtVlzIb6/UX5PC/LAAALa/9w9PSgwqWzUabQhXuK5mNFpS1fzGloFJRpbYVfSUXfWuBpvxESanpunqVonwFSjsIigAAtIu2DU/h7MDqzMioiyAjSWVlPE+el3YU1nqUq+TUU9+UGFZuJCktn9DJ+vYm6ZmsKLe9viWh4Xt8JVXS/qX6dgAAOlfbhqfE0Pza7EiglNlpRY9yazMyxZGk2enMybBqNjkRHrcx1wUAQPtp2/DUkZYy8hel1LQxI2VRePigqpISVyfMLgAAOhLhqQ2svzg+KgUV89GaTWU9OFOVlNJuZzUBAGhthKc20DNZe4F7t/bb/sZdnfKEr5LcznQBANDqCE9tpUe56ZS0GKhg+RWk8oQnf1FKjhQdznQBAND6CE9tqaoTz5ptzVMfnOaHeNcJAIB6hKc2s/qtt6S2vMPsaY5acEpNVwhOAACcBuGpVS1lNr7bFBaUmalKvb6GLeSa+uDEozoAAE6vbcPT+iKZ3upLzdWZtOWfE6ktkukpPVOVVJK/9s8ZGwtIbt+t1KLf+FMp6UAaKaoyaeP17bL2L67+r9LoaX4WhlXGAQCQ2jk8nVok09j2DcvCpEzDIpnmZmeW5vT17D1KO329UxvfuAMAQO0cngAAAOJAeAIAAIiA8AQAABAB4QkAACACwhMAAEAEhCcAAIAICE8AAAARdK2srKw0NHR1SZKy2Wx9MxBJNpvV1NSU2QwAQMsaHx+XJBnRaIOzhqfBwcH6Luvm5uac1pybm1NfX5/ZbNXCwoLTmq7raa1mLTyNjY2Z3dbk83mn9RRDTdf1FEPNfD4vSU5rKqZxuqynGGq6rqeYzp+4xumyput6iqFmPp8/7/DEYzsAAIAICE8AAAAREJ4AAAAiIDwBAABEQHgCAACIgPB0vpYy8jyvcesvKDT3a5pQhX6jnucps2Tu10TOxwgAQPshPJ2n8hMlpaYrqlRqW1G+AqW9jMrmzs0QHtJB+Squ16uoMp1SadTTwKydOON8jAAAtCHC03nqmawot72+JaHhe3wlVdJ+G7NBiWHN7xtWor5te05Br1Q9cMjKbJDzMQIA0IYIT00QHrcRZc5i+YROmm2WOR8jAAAtivB0EcLDB1WVlLi6YX7IorL2L0rq3qIrzS5L3I8RAIDWRni6YGU9OFOVlNLuhkdd9oSzgUqSkrt2Nj7Os8b9GAEAaHWEpwtUnvBVkpSazqnH7LQhLCgzU5W6feWGHEUn12MEAKANEJ4uQHnCk78oJUeKxgvWloQFDaQDVZVSYL5EbonzMQIA0CYITxHVh4p5FzNA9cGp4mYGyPkYAQBoI4SnCGqhIjVdcRMqasGp21fRcXByNkYAANoM4ek81YcKJ4+x6oOT40d1zsYIAEAbIjydl7UlAiSVRjf+ZIpnYQXu2hIBWg6U3lDPxirj7scIAEA7Ijydlx7l6n8mZcPW/EdqiaH509Q5tTX/kZr7MQIA0I4ITwAAABEQngAAACIgPAEAAERAeAIAAIiA8AQAABAB4QkAACACwhMAAEAEXSsrKysNDV1dkqRsNlvfDESSzWY1NTVlNgMA0LLGx8clSUY02uCM4QkAAKATnSs88dgOAAAggg0zTwAAADgzZp4AAAAiIDwBAABEQHgCAACIgPAEAAAQwf8Hm7ZNuSqIkVAAAAAASUVORK5CYII=;" vertex="1" parent="glLumCabKYNt1pLh63lK-1">
          <mxGeometry x="179.99" y="57.5" width="680.01" height="550" as="geometry" />
        </mxCell>
        <mxCell id="glLumCabKYNt1pLh63lK-4" value="Очистить" style="rounded=1;whiteSpace=wrap;html=1;" vertex="1" parent="glLumCabKYNt1pLh63lK-1">
          <mxGeometry x="329.99" y="617.5" width="120" height="30" as="geometry" />
        </mxCell>
        <mxCell id="glLumCabKYNt1pLh63lK-5" value="Сохранить" style="rounded=1;whiteSpace=wrap;html=1;" vertex="1" parent="glLumCabKYNt1pLh63lK-1">
          <mxGeometry x="459.99" y="617.5" width="120" height="30" as="geometry" />
        </mxCell>
        <mxCell id="glLumCabKYNt1pLh63lK-6" value="Подсказать(0/3)" style="rounded=1;whiteSpace=wrap;html=1;" vertex="1" parent="glLumCabKYNt1pLh63lK-1">
          <mxGeometry x="589.99" y="617.5" width="120" height="30" as="geometry" />
        </mxCell>
        <mxCell id="glLumCabKYNt1pLh63lK-7" value="Проверить на ошибки" style="rounded=1;whiteSpace=wrap;html=1;" vertex="1" parent="glLumCabKYNt1pLh63lK-1">
          <mxGeometry x="726.99" y="617.5" width="123" height="30" as="geometry" />
        </mxCell>
        <mxCell id="glLumCabKYNt1pLh63lK-8" value="&amp;lt;&amp;lt; Вернуть" style="rounded=1;whiteSpace=wrap;html=1;" vertex="1" parent="glLumCabKYNt1pLh63lK-1">
          <mxGeometry x="189.99" y="617.5" width="120" height="30" as="geometry" />
        </mxCell>
        <mxCell id="glLumCabKYNt1pLh63lK-9" value="" style="rounded=0;whiteSpace=wrap;html=1;fillColor=light-dark(#000000,var(--ge-dark-color, #121212));" vertex="1" parent="glLumCabKYNt1pLh63lK-1">
          <mxGeometry x="340" y="750" width="50" height="50" as="geometry" />
        </mxCell>
        <mxCell id="glLumCabKYNt1pLh63lK-10" value="" style="group" vertex="1" connectable="0" parent="glLumCabKYNt1pLh63lK-1">
          <mxGeometry x="579.99" y="750" width="50" height="50" as="geometry" />
        </mxCell>
        <mxCell id="glLumCabKYNt1pLh63lK-11" value="" style="rounded=0;whiteSpace=wrap;html=1;fillColor=light-dark(#FFFFFF,var(--ge-dark-color, #121212));fontStyle=1" vertex="1" parent="glLumCabKYNt1pLh63lK-10">
          <mxGeometry width="50" height="50" as="geometry" />
        </mxCell>
        <mxCell id="glLumCabKYNt1pLh63lK-12" value="" style="endArrow=none;html=1;rounded=0;exitX=0;exitY=1;exitDx=0;exitDy=0;entryX=1;entryY=0;entryDx=0;entryDy=0;" edge="1" parent="glLumCabKYNt1pLh63lK-10" source="glLumCabKYNt1pLh63lK-11" target="glLumCabKYNt1pLh63lK-11">
          <mxGeometry width="50" height="50" relative="1" as="geometry">
            <mxPoint y="30" as="sourcePoint" />
            <mxPoint x="50" y="-20" as="targetPoint" />
          </mxGeometry>
        </mxCell>
        <mxCell id="glLumCabKYNt1pLh63lK-13" value="" style="endArrow=none;html=1;rounded=0;exitX=0;exitY=0;exitDx=0;exitDy=0;entryX=1;entryY=1;entryDx=0;entryDy=0;" edge="1" parent="glLumCabKYNt1pLh63lK-10" source="glLumCabKYNt1pLh63lK-11" target="glLumCabKYNt1pLh63lK-11">
          <mxGeometry width="50" height="50" relative="1" as="geometry">
            <mxPoint x="10" y="60" as="sourcePoint" />
            <mxPoint x="60" y="10" as="targetPoint" />
          </mxGeometry>
        </mxCell>
        <mxCell id="glLumCabKYNt1pLh63lK-14" value="&lt;font style=&quot;font-size: 21px;&quot;&gt;ЛКМ -&amp;nbsp;&lt;/font&gt;" style="text;html=1;align=center;verticalAlign=middle;whiteSpace=wrap;rounded=0;" vertex="1" parent="glLumCabKYNt1pLh63lK-1">
          <mxGeometry x="190" y="755" width="90" height="40" as="geometry" />
        </mxCell>
        <mxCell id="glLumCabKYNt1pLh63lK-15" value="&lt;span style=&quot;font-size: 21px;&quot;&gt;ПКМ -&lt;/span&gt;" style="text;html=1;align=center;verticalAlign=middle;whiteSpace=wrap;rounded=0;" vertex="1" parent="glLumCabKYNt1pLh63lK-1">
          <mxGeometry x="474.99" y="755" width="90" height="40" as="geometry" />
        </mxCell>
        <mxCell id="glLumCabKYNt1pLh63lK-16" value="&lt;span style=&quot;font-size: 21px;&quot;&gt;ПОВТОР -&amp;nbsp;&lt;/span&gt;" style="text;html=1;align=center;verticalAlign=middle;whiteSpace=wrap;rounded=0;" vertex="1" parent="glLumCabKYNt1pLh63lK-1">
          <mxGeometry x="670" y="755" width="110" height="40" as="geometry" />
        </mxCell>
        <mxCell id="glLumCabKYNt1pLh63lK-17" value="" style="rounded=0;whiteSpace=wrap;html=1;" vertex="1" parent="glLumCabKYNt1pLh63lK-1">
          <mxGeometry x="790" y="750" width="50" height="50" as="geometry" />
        </mxCell>
        <mxCell id="glLumCabKYNt1pLh63lK-18" value="Выйти в меню" style="rounded=1;whiteSpace=wrap;html=1;" vertex="1" parent="glLumCabKYNt1pLh63lK-1">
          <mxGeometry x="30" y="30" width="90" height="40" as="geometry" />
        </mxCell>
        <mxCell id="glLumCabKYNt1pLh63lK-19" value="" style="rounded=1;whiteSpace=wrap;html=1;" vertex="1" parent="glLumCabKYNt1pLh63lK-1">
          <mxGeometry x="179.99" y="670" width="670.01" height="60" as="geometry" />
        </mxCell>
        <mxCell id="glLumCabKYNt1pLh63lK-20" value="" style="rounded=1;whiteSpace=wrap;html=1;fillColor=light-dark(#00ff00, #005d00);strokeColor=default;gradientColor=none;strokeWidth=1;" vertex="1" parent="glLumCabKYNt1pLh63lK-1">
          <mxGeometry x="179.99" y="670" width="20" height="60" as="geometry" />
        </mxCell>
        <mxCell id="glLumCabKYNt1pLh63lK-21" value="Прогресс" style="text;html=1;align=center;verticalAlign=middle;whiteSpace=wrap;rounded=0;" vertex="1" parent="glLumCabKYNt1pLh63lK-1">
          <mxGeometry x="485" y="685" width="60" height="30" as="geometry" />
        </mxCell>
      </root>
    </mxGraphModel>
  </diagram>
  <diagram id="Se-NE--elFE5VDIAPccZ" name="Форма авторизации">
    <mxGraphModel dx="5349" dy="1544" grid="1" gridSize="10" guides="1" tooltips="1" connect="1" arrows="1" fold="1" page="1" pageScale="1" pageWidth="827" pageHeight="1169" math="0" shadow="0">
      <root>
        <mxCell id="0" />
        <mxCell id="1" parent="0" />
        <mxCell id="t4pyRsyPeAVXoJtHg4sl-1" value="" style="group" vertex="1" connectable="0" parent="1">
          <mxGeometry x="-1800" y="230" width="1080" height="800" as="geometry" />
        </mxCell>
        <mxCell id="t4pyRsyPeAVXoJtHg4sl-2" value="" style="rounded=0;whiteSpace=wrap;html=1;container=0;" vertex="1" parent="t4pyRsyPeAVXoJtHg4sl-1">
          <mxGeometry width="1080" height="800" as="geometry" />
        </mxCell>
        <mxCell id="t4pyRsyPeAVXoJtHg4sl-3" value="Войти" style="rounded=1;whiteSpace=wrap;html=1;container=0;fontSize=27;" vertex="1" parent="t4pyRsyPeAVXoJtHg4sl-1">
          <mxGeometry x="216" y="606.0606060606061" width="264" height="60.60606060606061" as="geometry" />
        </mxCell>
        <mxCell id="t4pyRsyPeAVXoJtHg4sl-4" value="Регистрация" style="rounded=1;whiteSpace=wrap;html=1;container=0;fontSize=27;" vertex="1" parent="t4pyRsyPeAVXoJtHg4sl-1">
          <mxGeometry x="624" y="606.0606060606061" width="264" height="60.60606060606061" as="geometry" />
        </mxCell>
        <mxCell id="t4pyRsyPeAVXoJtHg4sl-5" value="Нет аккаунта?" style="text;html=1;align=center;verticalAlign=middle;whiteSpace=wrap;rounded=0;container=0;fontSize=27;" vertex="1" parent="t4pyRsyPeAVXoJtHg4sl-1">
          <mxGeometry x="624" y="533.3333333333334" width="264" height="72.72727272727273" as="geometry" />
        </mxCell>
        <mxCell id="t4pyRsyPeAVXoJtHg4sl-6" value="" style="rounded=1;whiteSpace=wrap;html=1;container=0;" vertex="1" parent="t4pyRsyPeAVXoJtHg4sl-1">
          <mxGeometry x="182.4" y="145.45454545454547" width="672" height="96.96969696969697" as="geometry" />
        </mxCell>
        <mxCell id="t4pyRsyPeAVXoJtHg4sl-7" value="Введите логин:" style="text;html=1;align=center;verticalAlign=middle;whiteSpace=wrap;rounded=0;container=0;fontSize=27;" vertex="1" parent="t4pyRsyPeAVXoJtHg4sl-1">
          <mxGeometry x="158.4" y="72.72727272727273" width="312" height="72.72727272727273" as="geometry" />
        </mxCell>
        <mxCell id="t4pyRsyPeAVXoJtHg4sl-8" value="Введите пароль:" style="text;html=1;align=center;verticalAlign=middle;whiteSpace=wrap;rounded=0;container=0;fontSize=27;" vertex="1" parent="t4pyRsyPeAVXoJtHg4sl-1">
          <mxGeometry x="182.4" y="266.6666666666667" width="312" height="72.72727272727273" as="geometry" />
        </mxCell>
        <mxCell id="t4pyRsyPeAVXoJtHg4sl-9" value="&lt;font&gt;&amp;nbsp;****&lt;/font&gt;" style="rounded=1;whiteSpace=wrap;html=1;align=left;container=0;fontSize=27;" vertex="1" parent="t4pyRsyPeAVXoJtHg4sl-1">
          <mxGeometry x="182.4" y="339.3939393939394" width="672" height="96.96969696969697" as="geometry" />
        </mxCell>
        <mxCell id="t4pyRsyPeAVXoJtHg4sl-10" value="Выйти в меню" style="rounded=1;whiteSpace=wrap;html=1;" vertex="1" parent="t4pyRsyPeAVXoJtHg4sl-1">
          <mxGeometry x="20" y="32.73000000000002" width="90" height="40" as="geometry" />
        </mxCell>
      </root>
    </mxGraphModel>
  </diagram>
  <diagram id="R-V74L-t45ovTKylsGcq" name="Форма регистрации">
    <mxGraphModel dx="4841" dy="1716" grid="1" gridSize="10" guides="1" tooltips="1" connect="1" arrows="1" fold="1" page="1" pageScale="1" pageWidth="827" pageHeight="1169" math="0" shadow="0">
      <root>
        <mxCell id="0" />
        <mxCell id="1" parent="0" />
        <mxCell id="Q9mn0arnAOmR1aWhsTmC-1" value="" style="group" vertex="1" connectable="0" parent="1">
          <mxGeometry x="-1460" y="510" width="1080" height="800" as="geometry" />
        </mxCell>
        <mxCell id="Q9mn0arnAOmR1aWhsTmC-2" value="" style="rounded=0;whiteSpace=wrap;html=1;container=0;fontSize=25;" vertex="1" parent="Q9mn0arnAOmR1aWhsTmC-1">
          <mxGeometry width="1080" height="800" as="geometry" />
        </mxCell>
        <mxCell id="Q9mn0arnAOmR1aWhsTmC-3" value="Зарегистрироваться" style="rounded=1;whiteSpace=wrap;html=1;container=0;fontSize=25;" vertex="1" parent="Q9mn0arnAOmR1aWhsTmC-1">
          <mxGeometry x="156" y="654.5454545454545" width="288.00000000000006" height="60.60606060606061" as="geometry" />
        </mxCell>
        <mxCell id="Q9mn0arnAOmR1aWhsTmC-4" value="Авторизация" style="rounded=1;whiteSpace=wrap;html=1;container=0;fontSize=25;" vertex="1" parent="Q9mn0arnAOmR1aWhsTmC-1">
          <mxGeometry x="624" y="654.5454545454545" width="264" height="60.60606060606061" as="geometry" />
        </mxCell>
        <mxCell id="Q9mn0arnAOmR1aWhsTmC-5" value="Есть аккаунт?" style="text;html=1;align=center;verticalAlign=middle;whiteSpace=wrap;rounded=0;container=0;fontSize=25;" vertex="1" parent="Q9mn0arnAOmR1aWhsTmC-1">
          <mxGeometry x="624" y="581.818181818182" width="264" height="72.72727272727273" as="geometry" />
        </mxCell>
        <mxCell id="Q9mn0arnAOmR1aWhsTmC-6" value="" style="rounded=1;whiteSpace=wrap;html=1;container=0;fontSize=25;" vertex="1" parent="Q9mn0arnAOmR1aWhsTmC-1">
          <mxGeometry x="132" y="121.21212121212125" width="672" height="48.484848484848484" as="geometry" />
        </mxCell>
        <mxCell id="Q9mn0arnAOmR1aWhsTmC-7" value="Введите уникальный логин:" style="text;html=1;align=center;verticalAlign=middle;whiteSpace=wrap;rounded=0;container=0;fontSize=25;" vertex="1" parent="Q9mn0arnAOmR1aWhsTmC-1">
          <mxGeometry x="132" y="48.4848484848485" width="408.00000000000006" height="72.72727272727273" as="geometry" />
        </mxCell>
        <mxCell id="Q9mn0arnAOmR1aWhsTmC-8" value="Введите пароль:" style="text;html=1;align=center;verticalAlign=middle;whiteSpace=wrap;rounded=0;container=0;fontSize=25;" vertex="1" parent="Q9mn0arnAOmR1aWhsTmC-1">
          <mxGeometry x="132" y="169.69696969696975" width="312.00000000000006" height="72.72727272727273" as="geometry" />
        </mxCell>
        <mxCell id="Q9mn0arnAOmR1aWhsTmC-9" value="" style="rounded=1;whiteSpace=wrap;html=1;align=left;container=0;fontSize=25;" vertex="1" parent="Q9mn0arnAOmR1aWhsTmC-1">
          <mxGeometry x="132" y="242.4242424242425" width="672" height="48.484848484848484" as="geometry" />
        </mxCell>
        <mxCell id="Q9mn0arnAOmR1aWhsTmC-10" value="Подтвердите пароль:" style="text;html=1;align=center;verticalAlign=middle;whiteSpace=wrap;rounded=0;container=0;fontSize=25;" vertex="1" parent="Q9mn0arnAOmR1aWhsTmC-1">
          <mxGeometry x="132" y="290.909090909091" width="312.00000000000006" height="72.72727272727273" as="geometry" />
        </mxCell>
        <mxCell id="Q9mn0arnAOmR1aWhsTmC-11" value="" style="rounded=1;whiteSpace=wrap;html=1;align=left;container=0;fontSize=25;" vertex="1" parent="Q9mn0arnAOmR1aWhsTmC-1">
          <mxGeometry x="132" y="363.6363636363635" width="672" height="48.484848484848484" as="geometry" />
        </mxCell>
        <mxCell id="Q9mn0arnAOmR1aWhsTmC-12" value="Введите email:" style="text;html=1;align=center;verticalAlign=middle;whiteSpace=wrap;rounded=0;container=0;fontSize=25;" vertex="1" parent="Q9mn0arnAOmR1aWhsTmC-1">
          <mxGeometry x="132" y="412.121212121212" width="312.00000000000006" height="72.72727272727273" as="geometry" />
        </mxCell>
        <mxCell id="Q9mn0arnAOmR1aWhsTmC-13" value="" style="rounded=1;whiteSpace=wrap;html=1;align=left;container=0;fontSize=25;" vertex="1" parent="Q9mn0arnAOmR1aWhsTmC-1">
          <mxGeometry x="132" y="484.848484848485" width="672" height="48.484848484848484" as="geometry" />
        </mxCell>
        <mxCell id="Q9mn0arnAOmR1aWhsTmC-14" value="Выйти в меню" style="rounded=1;whiteSpace=wrap;html=1;" vertex="1" parent="Q9mn0arnAOmR1aWhsTmC-1">
          <mxGeometry x="20" y="30" width="90" height="40" as="geometry" />
        </mxCell>
      </root>
    </mxGraphModel>
  </diagram>
  <diagram id="7c1xzHltDudC4JLqbKti" name="Всё вместе (для тз)">
    <mxGraphModel dx="6578" dy="2206" grid="1" gridSize="10" guides="1" tooltips="1" connect="1" arrows="1" fold="1" page="1" pageScale="1" pageWidth="827" pageHeight="1169" math="0" shadow="0">
      <root>
        <mxCell id="0" />
        <mxCell id="1" parent="0" />
        <mxCell id="esyHXLUQYYoeoOVSxhcm-31" value="" style="group" vertex="1" connectable="0" parent="1">
          <mxGeometry x="-730" y="90" width="1080.0000000000002" height="1460" as="geometry" />
        </mxCell>
        <mxCell id="esyHXLUQYYoeoOVSxhcm-2" value="" style="rounded=0;whiteSpace=wrap;html=1;container=0;" vertex="1" parent="esyHXLUQYYoeoOVSxhcm-31">
          <mxGeometry x="20" width="1060.0000000000002" height="805" as="geometry" />
        </mxCell>
        <mxCell id="esyHXLUQYYoeoOVSxhcm-3" value="" style="rounded=1;whiteSpace=wrap;html=1;rotation=90;fillColor=light-dark(#999999,var(--ge-dark-color, #121212));container=0;" vertex="1" parent="esyHXLUQYYoeoOVSxhcm-31">
          <mxGeometry x="983.4144736842106" y="288.75" width="167.3684210526316" height="12.5" as="geometry" />
        </mxCell>
        <mxCell id="esyHXLUQYYoeoOVSxhcm-4" value="" style="endArrow=none;html=1;rounded=0;exitX=0;exitY=0.25;exitDx=0;exitDy=0;entryX=1;entryY=0.25;entryDx=0;entryDy=0;" edge="1" parent="esyHXLUQYYoeoOVSxhcm-31">
          <mxGeometry width="50" height="50" relative="1" as="geometry">
            <mxPoint x="20" y="145" as="sourcePoint" />
            <mxPoint x="1080.0000000000002" y="145" as="targetPoint" />
          </mxGeometry>
        </mxCell>
        <mxCell id="esyHXLUQYYoeoOVSxhcm-5" value="" style="endArrow=none;html=1;rounded=0;exitX=0;exitY=0.333;exitDx=0;exitDy=0;entryX=0.998;entryY=0.333;entryDx=0;entryDy=0;entryPerimeter=0;exitPerimeter=0;" edge="1" parent="esyHXLUQYYoeoOVSxhcm-31">
          <mxGeometry width="50" height="50" relative="1" as="geometry">
            <mxPoint x="20" y="194.99500000000006" as="sourcePoint" />
            <mxPoint x="1077.8799999999999" y="194.99500000000006" as="targetPoint" />
          </mxGeometry>
        </mxCell>
        <mxCell id="esyHXLUQYYoeoOVSxhcm-6" value="" style="rounded=0;whiteSpace=wrap;html=1;container=0;" vertex="1" parent="esyHXLUQYYoeoOVSxhcm-31">
          <mxGeometry x="50" y="10" width="205" height="100" as="geometry" />
        </mxCell>
        <mxCell id="esyHXLUQYYoeoOVSxhcm-7" value="Статистика" style="text;html=1;align=center;verticalAlign=middle;whiteSpace=wrap;rounded=0;container=0;fontStyle=1" vertex="1" parent="esyHXLUQYYoeoOVSxhcm-31">
          <mxGeometry x="160" y="10" width="60" height="30" as="geometry" />
        </mxCell>
        <mxCell id="esyHXLUQYYoeoOVSxhcm-8" value="" style="shape=actor;whiteSpace=wrap;html=1;fillColor=light-dark(#000000,var(--ge-dark-color, #121212));container=0;" vertex="1" parent="esyHXLUQYYoeoOVSxhcm-31">
          <mxGeometry x="60" y="20" width="50" height="60" as="geometry" />
        </mxCell>
        <mxCell id="esyHXLUQYYoeoOVSxhcm-9" value="UserName" style="text;html=1;align=center;verticalAlign=middle;whiteSpace=wrap;rounded=0;container=0;fontStyle=1" vertex="1" parent="esyHXLUQYYoeoOVSxhcm-31">
          <mxGeometry x="55" y="80" width="60" height="30" as="geometry" />
        </mxCell>
        <mxCell id="esyHXLUQYYoeoOVSxhcm-10" value="Авторизация" style="rounded=1;whiteSpace=wrap;html=1;container=0;fontStyle=1;fontSize=14;" vertex="1" parent="esyHXLUQYYoeoOVSxhcm-31">
          <mxGeometry x="950" y="60" width="110" height="25" as="geometry" />
        </mxCell>
        <mxCell id="esyHXLUQYYoeoOVSxhcm-11" value="Регистрация" style="rounded=1;whiteSpace=wrap;html=1;container=0;fontStyle=1;fontSize=14;" vertex="1" parent="esyHXLUQYYoeoOVSxhcm-31">
          <mxGeometry x="950" y="15" width="110" height="25" as="geometry" />
        </mxCell>
        <mxCell id="esyHXLUQYYoeoOVSxhcm-12" value="Выйти" style="rounded=1;whiteSpace=wrap;html=1;container=0;fontStyle=1;fontSize=14;" vertex="1" parent="esyHXLUQYYoeoOVSxhcm-31">
          <mxGeometry x="945" y="110" width="120" height="25" as="geometry" />
        </mxCell>
        <mxCell id="esyHXLUQYYoeoOVSxhcm-13" value="" style="verticalLabelPosition=bottom;verticalAlign=top;html=1;shape=mxgraph.basic.rect;fillColor2=none;strokeWidth=1;size=20;indent=5;container=0;" vertex="1" parent="esyHXLUQYYoeoOVSxhcm-31">
          <mxGeometry x="40" y="205" width="400" height="180" as="geometry" />
        </mxCell>
        <mxCell id="esyHXLUQYYoeoOVSxhcm-14" value="" style="verticalLabelPosition=bottom;verticalAlign=top;html=1;shape=mxgraph.basic.rect;fillColor2=none;strokeWidth=1;size=20;indent=5;container=0;" vertex="1" parent="esyHXLUQYYoeoOVSxhcm-31">
          <mxGeometry x="40" y="405" width="400" height="180" as="geometry" />
        </mxCell>
        <mxCell id="esyHXLUQYYoeoOVSxhcm-15" value="" style="verticalLabelPosition=bottom;verticalAlign=top;html=1;shape=mxgraph.basic.rect;fillColor2=none;strokeWidth=1;size=20;indent=5;container=0;" vertex="1" parent="esyHXLUQYYoeoOVSxhcm-31">
          <mxGeometry x="40" y="605" width="400" height="180" as="geometry" />
        </mxCell>
        <mxCell id="esyHXLUQYYoeoOVSxhcm-16" value="1" style="text;html=1;align=center;verticalAlign=middle;whiteSpace=wrap;rounded=0;container=0;" vertex="1" parent="esyHXLUQYYoeoOVSxhcm-31">
          <mxGeometry y="280" width="60" height="30" as="geometry" />
        </mxCell>
        <mxCell id="esyHXLUQYYoeoOVSxhcm-17" value="2" style="text;html=1;align=center;verticalAlign=middle;whiteSpace=wrap;rounded=0;container=0;" vertex="1" parent="esyHXLUQYYoeoOVSxhcm-31">
          <mxGeometry y="465" width="60" height="30" as="geometry" />
        </mxCell>
        <mxCell id="esyHXLUQYYoeoOVSxhcm-18" value="3" style="text;html=1;align=center;verticalAlign=middle;whiteSpace=wrap;rounded=0;container=0;" vertex="1" parent="esyHXLUQYYoeoOVSxhcm-31">
          <mxGeometry y="665" width="60" height="30" as="geometry" />
        </mxCell>
        <mxCell id="esyHXLUQYYoeoOVSxhcm-19" value="" style="shape=image;verticalLabelPosition=bottom;labelBackgroundColor=default;verticalAlign=top;aspect=fixed;imageAspect=0;image=https://static.nonograms.ru/files/nonograms/small/pirati3_1_0.png;container=0;" vertex="1" parent="esyHXLUQYYoeoOVSxhcm-31">
          <mxGeometry x="46" y="215" width="154.58" height="160" as="geometry" />
        </mxCell>
        <mxCell id="esyHXLUQYYoeoOVSxhcm-20" value="" style="shape=image;verticalLabelPosition=bottom;labelBackgroundColor=default;verticalAlign=top;aspect=fixed;imageAspect=0;image=https://static.nonograms.ru/files/nonograms/small/pirati3_1_0.png;container=0;" vertex="1" parent="esyHXLUQYYoeoOVSxhcm-31">
          <mxGeometry x="46" y="415" width="154.58" height="160" as="geometry" />
        </mxCell>
        <mxCell id="esyHXLUQYYoeoOVSxhcm-21" value="" style="shape=image;verticalLabelPosition=bottom;labelBackgroundColor=default;verticalAlign=top;aspect=fixed;imageAspect=0;image=https://static.nonograms.ru/files/nonograms/small/pirati3_1_0.png;container=0;" vertex="1" parent="esyHXLUQYYoeoOVSxhcm-31">
          <mxGeometry x="50" y="615" width="154.58" height="160" as="geometry" />
        </mxCell>
        <mxCell id="esyHXLUQYYoeoOVSxhcm-22" value="&lt;font style=&quot;font-size: 20px;&quot;&gt;#1&lt;br&gt;Размер: 45x45&lt;br&gt;Статус: не начат&lt;br&gt;Прогресс: 0%&lt;/font&gt;" style="text;html=1;align=left;verticalAlign=middle;whiteSpace=wrap;rounded=0;container=0;" vertex="1" parent="esyHXLUQYYoeoOVSxhcm-31">
          <mxGeometry x="230" y="215" width="190" height="160" as="geometry" />
        </mxCell>
        <mxCell id="esyHXLUQYYoeoOVSxhcm-23" value="&lt;font style=&quot;font-size: 20px;&quot;&gt;#2&lt;br&gt;Размер: 35x10&lt;br&gt;Статус: начат&lt;br&gt;Прогресс: 36%&lt;/font&gt;" style="text;html=1;align=left;verticalAlign=middle;whiteSpace=wrap;rounded=0;container=0;" vertex="1" parent="esyHXLUQYYoeoOVSxhcm-31">
          <mxGeometry x="239" y="405" width="190" height="160" as="geometry" />
        </mxCell>
        <mxCell id="esyHXLUQYYoeoOVSxhcm-24" value="&lt;font style=&quot;font-size: 20px;&quot;&gt;#3&lt;br&gt;Размер: 45x21&lt;br&gt;Статус: завершен&lt;br&gt;Прогресс: 100%&lt;/font&gt;" style="text;html=1;align=left;verticalAlign=middle;whiteSpace=wrap;rounded=0;container=0;" vertex="1" parent="esyHXLUQYYoeoOVSxhcm-31">
          <mxGeometry x="230" y="600" width="190" height="160" as="geometry" />
        </mxCell>
        <mxCell id="esyHXLUQYYoeoOVSxhcm-25" value="Простейшие" style="rounded=1;whiteSpace=wrap;html=1;container=0;fontStyle=1;fontSize=16;" vertex="1" parent="esyHXLUQYYoeoOVSxhcm-31">
          <mxGeometry x="50" y="159" width="111.63570225745639" height="25" as="geometry" />
        </mxCell>
        <mxCell id="esyHXLUQYYoeoOVSxhcm-26" value="Лёгкие" style="rounded=1;whiteSpace=wrap;html=1;container=0;fontStyle=1;fontSize=16;" vertex="1" parent="esyHXLUQYYoeoOVSxhcm-31">
          <mxGeometry x="189.72204105902574" y="159" width="111.63570225745639" height="25" as="geometry" />
        </mxCell>
        <mxCell id="esyHXLUQYYoeoOVSxhcm-27" value="Средние" style="rounded=1;whiteSpace=wrap;html=1;container=0;fontStyle=1;fontSize=16;" vertex="1" parent="esyHXLUQYYoeoOVSxhcm-31">
          <mxGeometry x="330.58019920395907" y="159" width="111.63570225745639" height="25" as="geometry" />
        </mxCell>
        <mxCell id="esyHXLUQYYoeoOVSxhcm-28" value="Сложные" style="rounded=1;whiteSpace=wrap;html=1;container=0;fontStyle=1;fontSize=16;" vertex="1" parent="esyHXLUQYYoeoOVSxhcm-31">
          <mxGeometry x="477.535484466112" y="159" width="111.63570225745639" height="25" as="geometry" />
        </mxCell>
        <mxCell id="esyHXLUQYYoeoOVSxhcm-29" value="" style="shape=image;verticalLabelPosition=bottom;labelBackgroundColor=default;verticalAlign=top;aspect=fixed;imageAspect=0;image=https://static.nonograms.ru/files/nonograms/small/pirati3_1_0.png;container=0;" vertex="1" parent="esyHXLUQYYoeoOVSxhcm-31">
          <mxGeometry x="56" y="225" width="154.58" height="160" as="geometry" />
        </mxCell>
        <mxCell id="esyHXLUQYYoeoOVSxhcm-30" value="Решенные" style="rounded=1;whiteSpace=wrap;html=1;container=0;fontStyle=1;fontSize=16;" vertex="1" parent="esyHXLUQYYoeoOVSxhcm-31">
          <mxGeometry x="939.995484466112" y="159" width="111.63570225745639" height="25" as="geometry" />
        </mxCell>
        <mxCell id="pSj7Kmk16YaTHSYiokDg-1" value="" style="group" vertex="1" connectable="0" parent="1">
          <mxGeometry x="620" y="490" width="1060" height="805" as="geometry" />
        </mxCell>
        <mxCell id="pSj7Kmk16YaTHSYiokDg-2" value="" style="rounded=0;whiteSpace=wrap;html=1;container=0;" vertex="1" parent="pSj7Kmk16YaTHSYiokDg-1">
          <mxGeometry width="1060" height="805" as="geometry" />
        </mxCell>
        <mxCell id="pSj7Kmk16YaTHSYiokDg-3" value="" style="shape=image;verticalLabelPosition=bottom;labelBackgroundColor=default;verticalAlign=top;aspect=fixed;imageAspect=0;image=data:image/png,iVBORw0KGgoAAAANSUhEUgAAAk8AAAHeCAYAAACCFe8VAAAAAXNSR0IArs4c6QAAAARnQU1BAACxjwv8YQUAAAAJcEhZcwAADsMAAA7DAcdvqGQAADuFSURBVHhe7d17aGR3/f/xV0pREbTFigqtl3G7ZmpBjwqL0sB2u7p13ICZUkkM9VKSavvriUm80VkjDJjuFG+ZmNOL7YR6KTHLt3QiZB273UsDU5QFdRRqJ+6uB2sX66XS+kdRKM3vj2SyM5/s7ezO53NmMs8HHLCfz6lvPj1nznnlc858pmtlZWVFAAAAOC9dZnjq6uqq/0cAAICOcq55pUvMBgAAAJzZGWeeXnzxxfpmIJLLL79c2WzWbAbO6bLLLpMkvfTSS2YXcE6cP7gYtfvWuWaeCE+wohaeBgcHzS5r5ubm1NfXZzZbtbCw4LSm63qKoeaRI0ckSbt37za7rJqbm3N+vrqspxhquq4nSfv375ccnz9xjNN1Tdf1FEPNubm58w5PPLYDAACIgPAEAAAQAeEJAAAgAsITAABABIQnAACACAhP6ExLGXme17j1FxSa+zVNqEK/Uc/zlFky92si52OstzregVk31QDAJcITOlL5iZJS0xVVKrWtKF+B0l5GZXPnZggP6aB8FdfrVVSZTqk0ai9gOB9jvaUHFSybjQCwORCe0JF6JivKba9vSWj4Hl9JlbTfxmxQYljz+4aVqG/bnlPQK1UPHLIyG+R8jJLC2YHVGa7RktkFAJsG4QkwhMdtRJmzWD6hk2abZbbGmBiaX5vlCpQyOwFgkyA8AWvCwwdVlZS4umF+yKKy9i9K6t6iK80uS9yPEQA2H8ITIEkq68GZqqSUdjc86rInnA1UkpTctbPxcZ417scIAJsR4QmQVJ7wVZKUms6px+y0ISwoM1OVun3lhhxFJ9djBIBNivCEjlee8OQvSsmRovGCtSVhQQPpQFWlFJgvkVvifIwAsIkRntDR6kPFvIsZoPrgVHEzA+R8jACwyRGe0LFqoSI1XXETKmrBqdtX0XFwcjZGAOgAhCd0pPpQ4eQxVn1wcvyoztkYAaBDEJ7QgdaWCJBUGt34kymehRW4a0sEaDlQekM9G6uMux+j6hfJ9FZfTq/OpB3/LAwA2Ed4QgfqUa7+Z1I2bM1/pHZq8cjTb81/pOZ+jDrbOB3NtgGAC4QnAACACAhPAAAAERCeAAAAIiA8AQAAREB4AgAAiIDwBAAAEAHhCQAAIIKulZWVlYaGri5J0osvvljfDERy+eWXK5vNms3AOV122WWSpJdeesnsAs6J8wcXo3bfMqLRBoQnWFELT4ODg2aXNXNzc+rr6zObrVpYWHBa03U9xVDzyJEjkqQdO3aYXVa5HufCwoLTz4fWPiMua8bxmYzj/OmUY+mynmKoOTc3d97hicd2AAAAERCeAAAAIiA8AQAAREB4AgAAiIDwBAAAEAHhCVjKyPMyKpvt1oQq9HsamA3NjuZaysjzvMatvyDLVdc4GqPJ+bHU+ljd191kYjlfa8euccssmfsBjQhP6HChCveVzEa7lh5UsGw2Nl/5iZJS0xVVKrWtKF+B0i5u8o7G2CiGYympPJGOYaybTyzna3hIB+WruF6zosp0SqXRGII/2grhCR2qrIznyfPc3fjC2YHVv2xH3dzgeyYrym2vb0lo+B5fSZW039Jf1q7HuMr9sVy3lJG/mFSqN2n2IKI4zlclhjW/b1iJ+rbtOQW9UvXAIcuzXmhnhCd0qB7l1v7SLI64ufElhubX/roNlDI7HQuP27ktxDNG98dSkhQWNDBaUmp6Xl9ouPui2Wydr2e1fEInzTZgDeEJ6CDh4YOqSkpczd3+4pSVSQfSSNGYLUEzxXO+lrV/UVL3Fl1pdgFrCE9AxyjrwZmqpJR2c8O/CKEK/b5K3b5yQy5v6p0mnvM1nA1UkpTctbPxcR5Qh/AEdIjyhK+SpNR0Tj1mJ87b6gviKQXmuzJoqljO17CgzExVIhjjHAhPQAcoT3jyF6Ukj5kuUln7F5Pyiw5v6B0olvM1LGggHagqgjHOjfAEbHL1N6J5/ppugqqCdOO6QOmZqqSSfCdrE21usZyv9cGpQjDGuRGegE2sdiNKTVfc3Yg2tVPf7KvfVr/ll1JQqajCrMUFi+V8rQWnbl9FghPOE+EJ2KTqb0TOHn0AFyiW87U+OBF6EQHhCR2qtrCi8cjF4k8zrC8g6a2+CFudSVv8CYq1r1tLKo1u/PkJWz8l4naMNe6PJZotpvN1bSkELQdKb6jJKuM4s66VlZWVhoauLknSiy++WN8MRHL55Zcrm81qcHDQ7LJmbm5OfX19ZrNVCwsLTmu6rqcYah45ckSStGPHDrPLKtfjXFhYcPr50NpnxGXNOD6TcZw/nXIsXdZTDDXn5uaUzWYlSUY02oCZJwAAgAgITwAAABEQngAAACIgPAEAAERAeAIAAIiA8AQAABAB4QkAACACwhMAAEAELJIJK2qLZAJRXXbZZZKkl156yewCzonzBxfjfBfJJDzBilp4crm6sOsVohVDTdf1FEPNOFaIVgzjdF1PMayE3UkrjLsep+uarusphpoLCwvnHZ54bAcAABAB4QkAACACwhMAAEAEhCcAAIAICE8AAAAREJ7QYkIV+j0NzIZmR3MtZeR5XuPWX5C9qqvjMmtmlsz9migsaMAcozeggrVBxjBG01JGnpdR2Wy3ZrOerzFwfr6eTu0cdnQOOTlfW+VzafdzUp7YOEabYyU8obUsPahg2WxsvvITJaWmK6pUaltRvgKlbV3IwkM6KF/F9XoVVaZTKo3au6CEhw9KI8W6MVYU9FYVpO1cTOIYY6NQhftKZqNdm/V8jYHz8/U0yhNpJ8dzlaPzNe7PZVjQwKiDcUpStzHOtS233dzx4hGe0BLC2YHVvxIcfch6Js0PVELD9/hKqqT9Ni7UiWHN7xtWor5te05Br1Q9cMjKDEJiaF7zQw0V1TMZKCUpPG6hYgxjXFVWxvPkee5ufJv+fI2B8/PVtJSRv5hUqjdp9jSZ4/M1ts+lVgPiXYGqvSmlzK42R3hCS0gMza/9lbB6sYyTkwt1veUTOmm22RJWLV8sz8DqGHuUW/sLszhi+8a3qqPPV5dcna9rsyOp6Xl9oTG/WeD+fD0jq5/LtZk8+SpO7ja72h7hCVgTHj6oqqTE1davnmvK2r8oqXuLrjS7rFj7K7DbV874C98e12PsHO7PV9dcna9lZdKBNFK08ninNdn/XIazA/IXUwrMWS+blgOl6993mrD3UJvwBEiSynpwpioppd2OLqDhbKCSpOSunXYvLusv4qZ1cFdRFYcXM2dj7Djuz1dnnJ6voQr9vkrWA1prsf65XMooPVNVajqnHrPPkp5J412noq/kom/tixWEJ0BSecJXSXL3YQ8LysxUJRcX7cSw5msvTirj7htMLsfYYZyfry45PF9XXxB3PDsSN9ufy7VHoMm4Z/ISw8qNJKXlgzpk4fwhPKHjlSc8+Yty92EPCxpIB6rK/UU7MZST311VMGtvOluKd4ybnfPzNUZ2z9ey9i8m5Rc3YQA9Ewefy/DwQVV7gw0v/8chccNHlVRVJ541ey4e4Qkdrf5G5OTDXn/xqsR40T5m8UXcVhnjJuT8fG0V1s7X1aUQ6tcESs9UJZXke5tsLS2Xn8tF31hraXWmtDqTtrbu0mk9e0JVs61JCE/oWLUbUWq64uZGVLt4dfsq2r54ndFJnViWtDVp5a/O1hjj5uT8fG0JNs/XU996q99WvwGXUlCpWH7fyiGHn8tT30St31a/lZpcW8fL1Yzp6jdR7bwXSHhCR6q/ETn5INdfvJxckEMV+je+K7L6rkxS/pCFy6fzMXYO5+erczGcr52iEz6XYUED5izh2kvryZEvWAmLhCe0hPVFB43pXTvT5mtf05VUGm2csl/dmr9qc+1r5Ru+Sru2NX+l34R27tKGRxL+YkpBZV7DFq6g7sdYU1t00HjkYvHxwGY/X91zf77Gx+35Gt/n0qFEUglzfKOrq/LbmqXtWllZWWlo6OqSJL344ov1zUAkl19+ubLZrPr6+swuaxYWFpzWUww1XddTDDWPHDkiSdqxY4fZZZXrcbqup7Wag4ODZrM1c3NzzscYx/kT17F0WdN1PcVQc2FhQdlsVpJkRKMNmHkCAACIgPAEAAAQAeEJAAAgAsITAABABIQnAACACAhPAAAAERCeAAAAImCdJ1hRW+cJiOqyyy6TJL300ktmF3BOnD+4GOe7zhPhCVawSKYdrusphppxLHKoGMbpup5iqOm6nmI6f+IYp+uarusphposkgkAAGAJ4QkAACACwhMAAEAEhCcAAIAICE8AAAAREJ7QAkIV+j15XuOWWTL3a6KlzIZ6Xn9BobmfFavjHZh1U02qjTejstluTQxjrFk7tm5qxzBOR8eyPLHxM+nksyl3Y4zl2qPTXH+cXXtUN2aL/33N8Vkfo/vjSHhC/MJDOihfxUpFldo2nVJp1N5NqfxESanpunqVonwFStu8oNQsPahg2Wy0KVThvpLZaJfzMa4JCxoYdThW5+N0fCy7jc/l2pbbbu7YTA7HGMO1J5wdkDcayi/GcO2RVJ5IWz9nnV9fYziOhCfELzGs+X3DStS3bc8p6JWqBw5Z+WulZ9K8ASQ0fI+vpErab+mvlXB2YPUvImc397IynifPs3+xrHE/xnqhCncFqvamlDK7msz9ON0fS/diGKPza09ZD85UlRzJaXi9aELD+wKlVFJg6Ua/bikjfzGpVG/S7Gkq59dX58eR8IRWt3xCJ802y8LjNj5qUmJofu2vosD6zX1Vj3Jrf4UVR+xeLGvcj/GU8kRagXwVJ3ebXU3nfpzuj6V7LTZGG9eesKpQUuLqhtu8pCu1pdvejV46NSubmp7XF8zyDtm6vp6RjeNIeELrKmv/oqTuLbrS7LIkPHxQ1dNe2NDqwtkB+YspBeZfn7g4y4HS9e+RTFh56NJiLF57nj2hqtkmSUooudXejV4qK5MOpJGi5UeuZ+b++mrxOBKe0KrC2UAlScldOx3dDFen06WUdsd0ccEFWsooPVNVajqnHrMPF6xnsv6dlYoqRV/JRd/yi7/xs3rteccWJZ3PvoQq9PsqdfvKDTV9ROfJ/fXV6nEkPKElhQVlZqqSww97ecJXSeIG3G7WHkUkY/yLumMkhpUbSUrLB3XI5b3fJdvXnsSw/F6pOpNRof6/YVhQYGmWZPUF8XhnZZ1fX20fR8ITWk5Y0EA6UFXuPuzlCU/+orgBt6Hw8EFVewPNW7pAolHiho8qqapOPGv2bAKOrj09kxUVR6QgXfc49C7po72StiabXLes/YtJ+UVHoeU0nF9fHR1HwhNaR/1JX3HzYa//YHMDblOLvrG+y+pfudWZtPW1XjrOGd/ZaXOOrz2nvnCwtu1L6sSilEw0e95JkqqNQc3zlJ6pSirJ9+yuv+T8+urwOBKe0BpqJ323r6Llk76m9sFOTVfcfLDRdBtuQnXfgEuOFFWxviZRZ1l9V8fdeytOxHDt2WBpv0pKyW/6dejUNxjrt9VvM6YUVCqqWJqdcX59dXwcCU+IX/1Jb+mDbKr/YHNzBQxhQQPmjMTai/nJkS9YvzE5E8O1x3Rq0Uz7N3xXnF9fYziOhCfErvYV1g1fi17bmr9C7NpXWCWVRjfWs/WzBesLKxqPlexNm9cWHTSm6S0+ynI/xni4H6fjY5lIKmF+HkdXV422N4vgeIyxXHvWbvR1NdIHPqpiZb5u0cx25/76Gsdx7FpZWVlpaOjqkiS9+OKL9c1AJJdffrmy2az6+vrMLmsWFhac1lMMNV3XUww1jxw5IknasWOH2WWV63G6rqcYarqup5jOnzjG6bqm63qKoebCwoKy2awkyYhGGzDzBAAAEAHhCQAAIALCEwAAQASEJwAAgAgITwAAABEQngAAACIgPAEAAETAOk+worbOExDVZZddJkl66aWXzC7gnDh/cDHOd52nM4YnAACATnTB4YlZA1yMbDarqakpsxkAgJY1Pj4uXWx4GhwcrO+ybm5uzmlN1/UUQ825uTmny9urbon7qakpjY2Nmd3W5PN5p/UUQ03X9RRDzXw+L0lOayqmcbqspxhquq6nmM6ffD6vv/3tbyoUCnrDG96gAwcO6F3vepde85rXmLtesJWVFf3zn//UrbfeqieffFJ333238zG6rKcYaubz+fMOT7wwDgDARfJ9X3v27NHzzz+vT33qU3r66afNXS7Kyy+/rKGhIT311FNKpVJmNxwjPAEAcJHe/va36+abb1Y2m9Wf/vQnffOb39ShQ4fM3S7IsWPHdMcdd2hpaUm33HLL+uwI4kN4AgCgCd75zndqeHhYvu/rd7/7nX74wx/q8OHD5m6R/OEPf9D999+vffv2KZ1O67bbbtN1111n7gbHCE8AADTJm9/8Zn3nO99RX1+fyuWy8vm8KpWKudt5OX78uH70ox9pdnZW119/vfbu3av3v//95m6IAeEJAIAmu/fee/XpT39ajz/+uIaHh/Xyyy/r1VdfNXc7o//+97/au3evZmZmtG3bNj3++OO68sorzd0QE8ITTgkLGvA8eQ3bgAqhuSMA4Fy+/vWva2JiQk8//bS2bdumP//5z+YuZ/SZz3xGjz32mAYGBjQ7O2t2I2aEJ6wLDx+URoqqVCrrW9BbVZD2lFky9wYAnM1b3/pWDQ4OamJiQs8884xGR0f11FNPmbs1eO6553TLLbfo8OHD6u/v19jYmN7xjneYuyFmhCesSwzNa34o0dDWMxkoJSk8zvQTAES1ZcsWfe5zn9NXvvIVHT16VPfee6+efPJJczdJ0h//+Efl83nNz8+rt7dXQ0ND+tCHPmTuhhZAeMLZhVURmwDgwl111VXau3ev+vr6dOTIET3wwAP67W9/27DPsWPH9Mgjj+iBBx7Qjh07tGfPHm3btq1hH7QOwhPOIlThrkDVbl85Y0YKAHD+Lr30Uj300EP65Cc/qcXFRX31q1/Vv//9b7366qv6z3/+oyAI9P3vf1+e5+kXv/iFuru7zf8LtBDCEzZaf3E8rYO7iqrsGxbRCQAu3t13360vfelL+tWvfqWPfexjeuGFF3TnnXfq4YcfViqV0qOPPqpLL73U/NfQYghP2CgxrPm1F8ZzyvCNOwBokiuuuEK33nqr7rrrLj399NP67Gc/qwMHDuimm27SxMSE3va2t63/xixaF+EJZ5UYysnvriqYLZtdAIALsHXrVn34wx/W//73P/3yl7/UP/7xD11zzTW8HN5GCE84P8d4cRwAmuHYsWP69a9/rde+9rX6+Mc/rre85S165pln9Jvf/MbcFS2K8IRzOKkTy5K2JnnvCQAu0gsvvKCHH35Y99xzj6699lr95Cc/0a5du/TYY49pcnJSzz//vFZWVsx/DS2G8IQ1oQr9G99tKk/4Kikpf6insQMAENk3vvEN/eAHP9BHPvIRPfHEE7riiit077336tZbb1WpVNLNN9+sV155xfzX0GIIT1iT0M5dUpBu/HkWfzGloDKvYaadAOCCvfLKK7rtttv085//XL29vfrud7+rN73pTbrkkkv0xje+Ub7v68tf/rIqlYo+8YlPaHl52fy/QAshPGFdYmi+4adZVrecmHMCgAv33HPPac+ePVpYWNCOHTt0++2364Mf/GDDPlu3btUtt9yi22+/XUeOHNHevXt19OjRhn3QOghPAABYcuLECf34xz/W9773PW3btk133nmnrr/+enM3SdJ73/tejY2NaWBgQIuLi5qdneUl8hZFeAIAwIK///3vmpub0+TkpK655hpNT0/ruuuuM3drcNVVV+mRRx7RDTfcoH379imfz+vZZ581d0PMCE8AAFjw7W9/W5OTk7r22mt19OhRvfvd7zZ3OaOf/vSnuummmzQ/P6+hoSGzGzEjPAEA0GR33nmnfvazn+nGG29UoVDQ61//el1yyfnfcl/3utdpz549GhkZ0dGjR3XjjTfq5MmT5m6IyfkfSQAAcFb/+te/9LWvfU0LCwvq6enR2NiYPM8zdzsvV199tT7/+c9raGhITz75pPbs2aPf//735m6IAeEJAIAm+Mtf/qJCoaAgCPSBD3xAX/ziF3XDDTeYu0Xyvve9T3fccYf6+/tVLBb10EMP6amnnjJ3g2OEJwAALtJf//pXPfroo8pms3rPe96jb33rW9q5c6e52wXZunWr7r//fm3fvl2PPPKIpqamzF3gWNeKsQ587decs9lsfTMQSTab5QMOAGgr4+PjknTOn8g5a3gaHBys77Jubm5OfX19ZrM1CwsLTusphpqu62mtZi08jY2Nmd3W5PN5p/UUQ03X9RRDzXw+L0lOayqmcbqspxhquq6nmM6ffD6vv/3tbyoUCnrDG96gAwcO6F3vepde85rXmLtesJWVFf3zn//UrbfeqieffFJ333238zG6rKcYaubz+fMOTzy2AwDgIvm+rz179uj555/Xpz71KT399NPmLhfl5Zdf1tDQkJ566imlUimzG44RngAAuEhvf/vbdfPNNyubzepPf/qTvvnNb+rQoUPmbhfk2LFjuuOOO7S0tKRbbrllfXYE8SE8AQDQBO985zs1PDws3/f1u9/9Tj/84Q91+PBhc7dI/vCHP+j+++/Xvn37lE6nddttt51zlXLYR3gCAKBJ3vzmN+s73/mO+vr6VC6Xlc/nValUzN3Oy/Hjx/WjH/1Is7Ozuv7667V37169//3vN3dDDAhPAAA02b333qtPf/rTevzxxzU8PKyXX35Zr776qrnbGf33v//V3r17NTMzo23btunxxx/XlVdeae6GmGyC8BSq0O9pYDY0O+xZysjzMiqb7U21Oi7Pa9wyS+Z+TbSU2VDP6y/I4X9ZANg0vv71r2tiYkJPP/20tm3bpj//+c/mLmf0mc98Ro899pgGBgY0OztrdiNm7R+elh5UsGw22hSqcF/JbGy+8JAOylexUlGltk2nVBq1FxTLT5SUmq6rVynKV6C09aAIAJvPW9/6Vg0ODmpiYkLPPPOMRkdHz7k6+HPPPadbbrlFhw8fVn9/v8bGxvSOd7zD3A0xa9vwFM4OrM6MjDoIMpKksjKeJ89LuwlriWHN7xtWor5te05Br1Q9cMjKbFDPZEW57fUtCQ3f4yupkvbbnPECgE1qy5Yt+tznPqevfOUrOnr0qO699149+eST5m6SpD/+8Y/K5/Oan59Xb2+vhoaG9KEPfcjcDS2gbcNTYmh+bXYkkJsVL3qUW5uRKY4kzU63lk/I9W9rh8dtxDUA2Pyuuuoq7d27V319fTpy5IgeeOAB/fa3v23Y59ixY3rkkUf0wAMPaMeOHdqzZ4+2bdvWsA9aR9uGp85U1v5FSd1b5Oq1wfDwQVUlJa5umAMDAERw6aWX6qGHHtInP/lJLS4u6qtf/ar+/e9/69VXX9V//vMfBUGg73//+/I8T7/4xS/U3d1t/l+ghRCe2kg4G6gkKblrZ+PjPGvKenCmKiml3Q2P8wAAF+Luu+/Wl770Jf3qV7/Sxz72Mb3wwgu688479fDDDyuVSunRRx/VpZdeav5raDGEp3YRFpSZqUrdvnJDjqLThK+SpNR0Tj1mJwAgsiuuuEK33nqr7rrrLj399NP67Gc/qwMHDuimm27SxMSE3va2t63/xixaF+GpHYQFDaQDVZVSYL5Ebkl5wpO/KCVHisZL5ACAi7F161Z9+MMf1v/+9z/98pe/1D/+8Q9dc801vBzeRghPra4+OFXczADVB6d5R7NcANApjh07pl//+td67Wtfq49//ON6y1veomeeeUa/+c1vzF3RoghPrawWnLp9FR0Hp9R0heAEAE32wgsv6OGHH9Y999yja6+9Vj/5yU+0a9cuPfbYY5qcnNTzzz+vlZUV819DiyE8tar64OT4UV1q2lzvCQDQDN/4xjf0gx/8QB/5yEf0xBNP6IorrtC9996rW2+9VaVSSTfffLNeeeUV819Di2nb8LS+SKa3+lJzdSZt+edEaotkekrPVCWV5Fv8yZTaEgFaDpQ2fzLFs7HK+NoyCJJKoxvr2f85GgDYvF555RXddttt+vnPf67e3l5997vf1Zve9CZdcskleuMb3yjf9/XlL39ZlUpFn/jEJ7S87GI1Zlyotg1PpxbJNDZrszSnFsk0NxuzNGcc39rW/EdqZx7f6ubmsSEAbDbPPfec9uzZo4WFBe3YsUO33367PvjBDzbss3XrVt1yyy26/fbbdeTIEe3du1dHjx5t2Aeto23DEwAAre7EiRP68Y9/rO9973vatm2b7rzzTl1//fXmbpKk9773vRobG9PAwIAWFxc1OzvLS+QtivAEAIAFf//73zU3N6fJyUldc801mp6e1nXXXWfu1uCqq67SI488ohtuuEH79u1TPp/Xs88+a+6GmBGeAACw4Nvf/rYmJyd17bXX6ujRo3r3u99t7nJGP/3pT3XTTTdpfn5eQ0NDZjdiRngCAKDJ7rzzTv3sZz/TjTfeqEKhoNe//vW65JLzv+W+7nWv0549ezQyMqKjR4/qxhtv1MmTrn8SHmdy/kcSAACc1b/+9S997Wtf08LCgnp6ejQ2NibP88zdzsvVV1+tz3/+8xoaGtKTTz6pPXv26Pe//725G2JAeAIAoAn+8pe/qFAoKAgCfeADH9AXv/hF3XDDDeZukbzvfe/THXfcof7+fhWLRT300EN66qmnzN3gGOEJAICL9Ne//lWPPvqostms3vOe9+hb3/qWdu7cae52QbZu3ar7779f27dv1yOPPKKpqSlzFzhGeAIA4CIFQaC9e/fqbW97m/7v//5P1157rbnLRXn961+v2dlZXXfddSqVSmY3HOtaMX5Ep6urS5KUzWbrm4FIstksfx0BANrK+Pi4JJ3z9wXPGp4GBwfru6ybm5tTX1+f2WzNwsKC03qKoabrelqrWQtPY2NjZrc1+XzeaT3FUNN1PcVQM5/PS5LTmoppnC7rKYaarusppvMnrnG6rOm6nmKomc/nzzs88dgOAAAgAsITAABABIQnAACACAhPAAAAERCeAAAAImjb8FSe8OR5xjZRNnezYykjz8vIbrVQhf6NY8wsmfs10VJmQz2vv6DQ3A8AgA7WpuGprP2LKQWViiq1regrueg7uNmHKtznYIGy8JAOylexfozTKZVGPQ3M2hlh+YmSUtN19SpF+QqUth4UAQBoH20annqUq+TUU9+UGFZuJCktn5Cd350uK+N58ry0gmWzz4LEsOb3DStR37Y9p6BXqh44ZCUg9kxWlNte35LQ8D2+kippv80ZLwAA2kibhqfTOxlWzaYm6lFubUamOJI0O92yFhDPLDxuI64BANB+Nk94WsrIX5RS08aM1KZS1v5FSd1bdKXZZUl4+KCqkhJXN8yBAQDQsdo+PK2/OD4qBRXzsdPmEs4GKklK7trZ+DjPmrIenKlKSmn3Jv7vCgBAFG0fnnomay8379Z+l9+4cy0sKDNTlbp95YYcRacJXyVt9tk8AACiafvwdEqPctMpaTFQYbO9nhMWNJAOVFVKgfkSuSXlCU/+opQcKW7q2TwAAKLaROGppqoTz5ptbaw+OJnfMLSkPjjNO5rlAgCgXWyq8LT6jbCktrzD7GlTteDU7avoODilpisEJwAATqM9w9NSZuO7TbV3gnp9DW+Ge359cHL8qC41vblfvAcA4GK0Z3javlupRb/xZ0TSgTRSVGXS1vxMbZFMT+mZqqSSfIs/mVJbIkDLgdLmT6Z4NlYZX1sGQVJpdGM9+z9HAwBAe2jP8FS3YGX9Zvcx0+lrViwtj5AYmt9Qx+5Yzzy+1c3NY0MAAFpdm4YnAACAeBCeAAAAIiA8AQAAREB4AgAAiIDwBAAAEAHhCQAAIALCEwAAQARdKysrKw0NXV2SpGw2W98MRJLNZjU1NWU2AwDQssbHxyVJRjTa4Kzhqa+vr77LuoWFBac1XddTDDVd19NazVp4GhsbM7utyefzTusphpqu6ymGmvl8XpKc1lRM43RZTzHUdF1PMZ0/cY3TZU3X9RRDzXw+f97hicd2AAAAERCeAAAAIiA8AQAAREB4AgAAiIDwBAAAEEFzwtNSRp7nNW79BYXmflaEKvR7Gph1U02qjTejstlujaMxxnocAQBoD00JT+UnSkpNV1Sp1LaifAVKuwgYSw8qWDYbbQpVuK9kNtrlaIyxHkcAANpEU8JTz2RFue31LQkN3+MrqZL2L9W3N084O7A6MzLqKsiUlfE8eV7aSZBRDGOM4zgCANBumhKeziY8buehT2Jofm12JFDK7LSiR7m1GZniSNLstML9GM/M1nEEAKDdWAtP4eGDqkpKXJ0wu9BGOI4AADSyFJ7KenCmKiml3Q2PgdBeOI4AAJishKfyhK+SpNR0Tj1mJ9oGxxEAgI2aHp7KE578RSk5UjRePkY74TgCAHB6TQ1P9Tfc+SHekWlXHEcAAM6saeGpdsNNTVe44bYxjiMAAGfXlPBUf8PlEU/74jgCAHBuTQhPZe1fXP1fpVHjpz08z9rPmKwvIOmtvtRcnUlb/jmR2iKZntIzVUkl+Wv/nLG0gKTbMcZzHAEAaDdNCE+nFo88/Wbnm1qnFpA0tn3DsvOw6czjtDVL43aMZx7f6mbnOAIA0G6aEJ4AAAA6B+EJAAAgAsITAABABIQnAACACAhPAAAAERCeAAAAIiA8AQAARNC1srKy0tDQ1SVJymaz9c1AJNlsVlNTU2YzAAAta3x8XJJkRKMNzhqe+vr66rusW1hYcFrTdT3FUNN1Pa3VrIWnsbExs9uafD7vtJ5iqOm6nmKomc/nJclpTcU0Tpf1FENN1/UU0/mTz+fXb7qucH1tvvrjeK7wxGM7AACACAhPAAAAERCeAAAAIiA8AQAAREB4AgAAiKD54WkpI8/LqGy2WxOq0O9pYDY0O5orLGjA8+Q1bAMqWC67ytEYlzLG+Dx5/QVZrgoAQFtpcngKVbivZDbatfSggmWzsfnCwwelkaIqlcr6FvRWFaQ9ZZbMvZvM0RjLT5SUmj41vkqlKF+B0k7DMAAAra1J4amsjOfJ89JObvKSFM4OrM6MjLoJa4mhec0PJRraeiYDpSSFx+3MzbgeY89kRbnt9S0JDd/jK6mS9tsOiAAAtIkmhace5dZmK4ojSbPTisTQ/NrsyGqAiUVYtfpIqyXGuMZWQAQAoN00KTx1olCFuwJVu33ljBmpzSQ8fFBVSYmrN+8YAQCIgvAU1fqL42kd3FVUZd+wNm+sKOvBmaqklHY3PM4DAKBzEZ6iSgxrfu0RZU4Zh9+4c6884askKTWdU4/ZCQBAhyI8XYTEUE5+d1XB7Ob7Llp5wpO/KCVHisZL5AAAdDbCUzMcs/viuGv1wcn8hiEAAJ2O8HRRTurEsqStyU3z3lMtOKWmKwQnAABOg/B0XkIV+je+27T6TlBS/tDmeCOoPjjxqA4AgNNrUniqLZLpKT1TlVSSv/bPtlbfXl9A0lt9qbk6k7b4cyIJ7dwlBenGny7xF1MKKvMatjRB43aMZe1fXP1fpVHzZ2g8xz+5AwBA62pSeDq1SKa52ZrBOLWApLFZWjrg9PXsfgvt9DVtjfHMx9DFWAEAaBdNCk8AAACdgfAEAAAQAeEJAAAgAsITAABABIQnAACACAhPAAAAERCeAAAAIuhaWVlZaWjo6pIkTU1N1TcDkYyPj3MOAQDayvj4uCTJiEYbMPMEAAAQwRlnnrLZrPr6+uq7rFtYWHBa03U9xVDTdT2t1cxms5qamtLY2JjZbU0+n3daTzHUdF1PMdTM5/OS5LSmYhqny3qKoabreorp/Mnn8+szFq5wfW2++uPIzBMAAEATEZ4AAAAiIDwBAABEQHgCAACIgPAEAAAQQfPD01JGnpdR2Wy3JlSh39PAbGh22LWUkee5qhvDGJ0fRwAA2kOTw1Oown0ls9GupQcVLJuNloUFDYw6HKfzMcZwHAEAaBNNCk9lZTxPnpd2dpMPZwfkeZ48lyFGWg0WdwWq9qaUMruazP0Y3R9HAADaTZPCU49ylYoqlYqKI0mz04rE0LwqlYoqlcB6iKlXnkgrkK/i5G6zq+ncj9H9cQQAoN00KTx1hnB2QP5iSsG+YSXMTgAA0BEIT+drKaP0TFWp6Zx6zD4AANAxCE/nY+0F8eRIUbntZicAAOgkhKfzEB4+qGpvoPkhHtYBANDpCE/na9Ff/ebb+uarJKk6k5bnecosmf8CAADYjAhP5+HUt97qt9VvwCVHiqpUKjzOAwCgQxCeAAAAImhSeKotrugpPVOVVJK/9s+2HmetLyBpPD7z+gty+CMmVrkfo/vjCABAu2lSeDq1uKK52XqcdfpHaRVVnK3BtDpmmy+Rux+j++MIAEC7aVJ4AgAA6AyEJwAAgAgITwAAABEQngAAACIgPAEAAERAeAIAAIiA8AQAABAB4QkAACCCrpWVlZWGhq4uSVI2m61vBiLJZrOampoymwEAaFnj4+OSJCMabXDW8DQ4OFjfZd3c3Jz6+vrMZmsWFhac1lMMNV3X01rNWngaGxszu63J5/NO6ymGmq7rKYaa+XxekpzWVEzjdFlPMdR0XU8xnT/5fH79pusK19fmqz+O5wpPPLYDAACIgPAEAAAQAeEJAAAgAsITAABABIQnAACACNo0PIUq9HvyvMYts2TuZ8lSRp6XUdlst6o2Zkd1YxkjAACtrz3DU3hIB+WrWKmoUtumUyqNehqYDc29myxU4b6S2WhdeSKtYNlstSWeMQIA0A7aMzwlhjW/b1iJ+rbtOQW9UvXAIdmJT2VlPE+e5zLErFnKyF9MKtWbNHuaLMYxAgDQJtozPJ3N8gmdNNuaoke5tVmu4ojtEFMnLGhgtKTU9Ly+0JAWbYhpjAAAtJFNFJ7K2r8oqXuLrjS72lZZmXQgjRSV2272AQCAOGya8BTOBipJSu7a2fg4r22FKvT7KnX7yg1tjhEBALAZbI7wFBaUmalKmyhorL4gnlJgvtsFAABi1f7hKSxoIB2oqs0UNMrav5iUX8ypx+wCAACxau/wVB+cKpstaFQVpBvXsUrPVCWV5HuevP6CpW8VAgCAs2nf8FQLTt2+ipsuOJ361lv9tvoNuJSCSkWVTTPLBgBAe2nP8FQfnAgRAADAobYMT+Hhg6pK0nKgtPETLZ5na5Xx2gKSxuMzlz8LY10njBEAgIvTluEpMTS/4ZFW/TZv5Rt3p3+UVqlUnK3BtDpum48o4x8jAACtri3DEwAAQFwITwAAABEQngAAACIgPAEAAERAeAIAAIiA8AQAABAB4QkAACCCrpWVlZWGhq4uSVI2m61vBiLJZrOampoymwEAaFnj4+OSJCMabXDW8DQ4OFjfZd3c3JzTmq7raa1mX1+f2WzNwsKC03paq1kLT2NjY2a3Nfl83mk9xVDTdT3FUDOfz0uS05qKaZwu6ymGmq7rKabzJ5/Pr990XeH62nz1x/Fc4YnHdgAAABEQngAAACIgPAEAAERAeAIAAIiA8AQAABAB4allhSr0e/K8xi2zZO5n0VJGnudpYDY0ewAA6FiEp1YVHtJB+SpWKqrUtumUSqOOwkxY0MBoyWwFAKDjEZ5aVWJY8/uGlahv255T0CtVDxyS3fgUqnBXoGpvSimzCwCADkd4akfLJ3TSbGui8kRagXwVJ3ebXQAAdDzCU1spa/+ipO4tutLsapJwdkD+YkqBOesFAAAkwlN7CWcDlSQld+20E2yWMkrPVJWazqnH7AMAABLhqY2EBWVmqlK3r9yQhei09oJ4cqSo3HazEwAA1BCe2kFY0EA6UFX2HqeFhw+q2hto3kYwAwBgEyE8tbr64FSx/Dht0TfWlfJVklSdSbtfYwoAgBZFeGplteDU7atoOTglhuZPrSe1vgVKSUqOFFWpVHicBwAA4amF1QcnS4/qAABAdISnFhUePqiqJC0HShs/0cJPpgAAEB/CU4s6/WO0U5ubF7t7lHNWCwCA9kB4AgAAiIDwBAAAEAHhCQAAIALCEwAAQASEJwAAgAgITwAAABEQngAAACLoWllZWWlo6OqSJGWz2fpmIJJsNqupqSmzGQCAljU+Pi5JMqLRBmcNT4ODg/Vd1s3Nzamvr89stmZhYcFpPcVQ03U9rdWshaexsTGz25p8Pu+0nmKo6bqeYqiZz+clyWlNxTROl/UUQ03X9RTT+ZPP59dvuq5wfW2++uN4rvDEYzsAAIAICE8AAAAREJ4AAAAiIDwBAABEQHgCAACIoG3DU3nCk+cZ20TZ3M2OpYw8LyPb1TphjAAAtJs2DU9l7V9MKahUVKltRV/JRV9ef0GhuXtThSrcVzIbLeiEMQIA0H7aNDz1KFfJqae+KTGs3EhSWj6hk/XtTVNWxvPkeWkFy2afDZ0wRgAA2k+bhqfTOxlWzaYm6lFubQaoOJI0O53phDECANDKNk94WsrIX5RS08ZszWbSCWMEAKDFtX14Wn+pelQKKhXltpt7tL9OGCMAAO2i7cNTz2Ttherd2u/y22gOdcIYAQBoF20fnk7pUW46JS0GKtj9KlqMOmGMAAC0tk0UnmqqOvGs2bbZdMIYAQBoTZsqPIXHQ0lJbXmH2bN5dMIYAQBoZe0ZnpYyG9/7CQvKzFSlXl/DicauttQJYwQAoA21Z3javlupRb/xZ0vSgTRSVGXS1pf4awtIekrPVCWV5K/9c2bJ3LcJOmGMAAC0ofYMT3WLOdZv80M2p2NOX7NibemA09fbXGMEAKD9tGl4AgAAiAfhCQAAIALCEwAAQASEJwAAgAgITwAAABEQngAAACIgPAEAAETQtbKystLQ0NUlScpms/XNQCTZbFZTU1NmMwAALWt8fFySZESjDc4angYHB+u7rJubm3Na03U9rdXs6+szm61ZWFhwWk9rNWvhaWxszOy2Jp/PO62nGGq6rqcYaubzeUlyWlMxjdNlPcVQ03U9xXT+5PP59ZuuK1xfm6/+OJ4rPPHYDgAAIALCEwAAQASEJwAAgAgITwAAABEQngAAACIgPLWBcHZAnuetbwOzoblLc4QFDdTVadj6C7JUFQCAtkJ4ammhCv2e0gc+qmKlosraNj+UMHdsqtT0qVrr275h2a0KAEB7IDy1sPJEWoF8FQkuAAC0DMJTqwoLChal1P8jOAEA0EoIT63q2ROqKqUtxxvfd/K8jMrmvk1WGq2vN6ACLzsBALCO8NSiwuOhpJIOKlf37lFRfndJvq0AlRjWvPGuU9BbVZD2lFkydwYAoDMRnlrUybAqKSW/4eXwhIbv8ZVUSYGtb9wZeiYDpSSVnrAS1wAAaDuEpxZ1ZSJpNq1KJJWQVA1Pmj2W9Gh3r6RjVZYqAACA8NTqQlVjTyyhqsfMNgAAOhfhqUUlbviokqrq4GEjPYWrM0Cpj/U0tltzUieWpeSunXzrDwAAwlMLSwzL75WqM5m6b7uVlUkHqnb7+sL2xt2boTxhvhgeqtDvq7Th3SsAADoX4amF9UxWVByRgnRt2QBfpd7A2mrfVyaSxjIFa4t0VnJyNc8FAECrIzy1uMTQfOPPpEzaizEbavGzLAAAbEB4AgAAiIDwBAAAEAHhCQAAIALCEwAAQASEJwAAgAgITwAAABEQngAAACIgPAEAAETQtbKystLQ0NUlSZqamqpvBiIZHx/nHAIAtJXx8XFJkhGNNmDmCQAAIIIzzjxls1kNDg7Wd1k3NzfntObc3Jz6+vrMZqsWFhac1nRdT2s1s9mspqamNDY2ZnZbk8/nndZTDDVd11MMNfP5vCQ5ramYxumynmKo6bqeYjp/8vn8+oyFK1xfm6/+ODLzBAAA0ESEJwAAgAgITwAAABEQngAAACIgPAEAAERAeLoQSxl5XkZls72pQhX6PXle45ZZMvdrorCgAaOe5w2oEJo7AgDQuQhPkYUq3FcyG5svPKSD8lWsVFSpbdMplUY9DczaSTPh4YPSSPFUvUpFQW9VQdpyaAMAoI0Qns5bWRnPk+elFSybfRYkhjW/b1iJ+rbtOQW9UvXAIdmIT4mhec0PNVRUz2SglKTwuI2KAAC0H8LTeetRbm02pjiSNDvdWj6hk2abLWHVSlADAKBdEZ7aSln7FyV1b9GVZpcVoQp3Bap2+8oZM1IAAHQqwlMbCWcDlSQld+1sfJzXbOsvjqd1cFdRFfPxIQAAHYzw1C7CgjIzVcnFLFBiWPNrjyhzyvCNOwAA6hCe2kFY0EA6UFUpBY5ngRJDOfndVQWzdhdmAACgXRCeWl19cKrk1GP2u3KMF8cBABDhqcXVglO3r2JswemkTixL2pp0OuMFAECrIjy1qvrg5ORRXahC/8Z3m8oTvkpKyh+KJ7oBANBqCE/nrbZIpqf0TFVSSb7Fn0wJDx9UVZKWA6U3/GSKjVXGE9q5SwrSjXX8xZSCyryG7ac3AADaAuHpvJ1aJNPcctvNfS9eYmh+Q536zVwJvBlOXzOux4UAALQmwhMAAEAEhCcAAIAICE8AAAAREJ4AAAAiIDwBAABEQHgCAACIgPAEAAAQQdfKyspKQ0NXlyQpm83WNwORZLNZTU1Nmc0AALSs8fFxSZIRjTY4a3gaHBys77Jubm5OfX19ZrM1CwsLTusphpqu62mtZi08jY2Nmd3W5PN5p/UUQ03X9RRDzXw+L0lOayqmcbqspxhquq6nmM6fuMbpsqbreoqhZj6fP+/wxGM7AACACAhPAAAAERCeAAAAIiA8AQAAREB4AgAAiGAThKdQhX5PA7Oh2WHPUkael1HZbG+y8oQnzzO2CYtVlzIb6/UX5PC/LAAALa/9w9PSgwqWzUabQhXuK5mNFpS1fzGloFJRpbYVfSUXfWuBpvxESanpunqVonwFSjsIigAAtIu2DU/h7MDqzMioiyAjSWVlPE+el3YU1nqUq+TUU9+UGFZuJCktn9DJ+vYm6ZmsKLe9viWh4Xt8JVXS/qX6dgAAOlfbhqfE0Pza7EiglNlpRY9yazMyxZGk2enMybBqNjkRHrcx1wUAQPtp2/DUkZYy8hel1LQxI2VRePigqpISVyfMLgAAOhLhqQ2svzg+KgUV89GaTWU9OFOVlNJuZzUBAGhthKc20DNZe4F7t/bb/sZdnfKEr5LcznQBANDqCE9tpUe56ZS0GKhg+RWk8oQnf1FKjhQdznQBAND6CE9tqaoTz5ptzVMfnOaHeNcJAIB6hKc2s/qtt6S2vMPsaY5acEpNVwhOAACcBuGpVS1lNr7bFBaUmalKvb6GLeSa+uDEozoAAE6vbcPT+iKZ3upLzdWZtOWfE6ktkukpPVOVVJK/9s8ZGwtIbt+t1KLf+FMp6UAaKaoyaeP17bL2L67+r9LoaX4WhlXGAQCQ2jk8nVok09j2DcvCpEzDIpnmZmeW5vT17D1KO329UxvfuAMAQO0cngAAAOJAeAIAAIiA8AQAABAB4QkAACACwhMAAEAEhCcAAIAICE8AAAARdK2srKw0NHR1SZKy2Wx9MxBJNpvV1NSU2QwAQMsaHx+XJBnRaIOzhqfBwcH6Luvm5uac1pybm1NfX5/ZbNXCwoLTmq7raa1mLTyNjY2Z3dbk83mn9RRDTdf1FEPNfD4vSU5rKqZxuqynGGq6rqeYzp+4xumyput6iqFmPp8/7/DEYzsAAIAICE8AAAAREJ4AAAAiIDwBAABEQHgCAACIgPB0vpYy8jyvcesvKDT3a5pQhX6jnucps2Tu10TOxwgAQPshPJ2n8hMlpaYrqlRqW1G+AqW9jMrmzs0QHtJB+Squ16uoMp1SadTTwKydOON8jAAAtCHC03nqmawot72+JaHhe3wlVdJ+G7NBiWHN7xtWor5te05Br1Q9cMjKbJDzMQIA0IYIT00QHrcRZc5i+YROmm2WOR8jAAAtivB0EcLDB1WVlLi6YX7IorL2L0rq3qIrzS5L3I8RAIDWRni6YGU9OFOVlNLuhkdd9oSzgUqSkrt2Nj7Os8b9GAEAaHWEpwtUnvBVkpSazqnH7LQhLCgzU5W6feWGHEUn12MEAKANEJ4uQHnCk78oJUeKxgvWloQFDaQDVZVSYL5EbonzMQIA0CYITxHVh4p5FzNA9cGp4mYGyPkYAQBoI4SnCGqhIjVdcRMqasGp21fRcXByNkYAANoM4ek81YcKJ4+x6oOT40d1zsYIAEAbIjydl7UlAiSVRjf+ZIpnYQXu2hIBWg6U3lDPxirj7scIAEA7Ijydlx7l6n8mZcPW/EdqiaH509Q5tTX/kZr7MQIA0I4ITwAAABEQngAAACIgPAEAAERAeAIAAIiA8AQAABAB4QkAACACwhMAAEAEXSsrKysNDV1dkqRsNlvfDESSzWY1NTVlNgMA0LLGx8clSUY02uCM4QkAAKATnSs88dgOAAAggg0zTwAAADgzZp4AAAAiIDwBAABEQHgCAACIgPAEAAAQwf8Hm7ZNuSqIkVAAAAAASUVORK5CYII=;" vertex="1" parent="pSj7Kmk16YaTHSYiokDg-1">
          <mxGeometry x="179.99" y="57.5" width="680.01" height="550" as="geometry" />
        </mxCell>
        <mxCell id="pSj7Kmk16YaTHSYiokDg-4" value="Очистить" style="rounded=1;whiteSpace=wrap;html=1;" vertex="1" parent="pSj7Kmk16YaTHSYiokDg-1">
          <mxGeometry x="329.99" y="617.5" width="120" height="30" as="geometry" />
        </mxCell>
        <mxCell id="pSj7Kmk16YaTHSYiokDg-5" value="Сохранить" style="rounded=1;whiteSpace=wrap;html=1;" vertex="1" parent="pSj7Kmk16YaTHSYiokDg-1">
          <mxGeometry x="459.99" y="617.5" width="120" height="30" as="geometry" />
        </mxCell>
        <mxCell id="pSj7Kmk16YaTHSYiokDg-6" value="Подсказать(0/3)" style="rounded=1;whiteSpace=wrap;html=1;" vertex="1" parent="pSj7Kmk16YaTHSYiokDg-1">
          <mxGeometry x="589.99" y="617.5" width="120" height="30" as="geometry" />
        </mxCell>
        <mxCell id="pSj7Kmk16YaTHSYiokDg-7" value="Проверить на ошибки" style="rounded=1;whiteSpace=wrap;html=1;" vertex="1" parent="pSj7Kmk16YaTHSYiokDg-1">
          <mxGeometry x="726.99" y="617.5" width="123" height="30" as="geometry" />
        </mxCell>
        <mxCell id="pSj7Kmk16YaTHSYiokDg-8" value="&amp;lt;&amp;lt; Вернуть" style="rounded=1;whiteSpace=wrap;html=1;" vertex="1" parent="pSj7Kmk16YaTHSYiokDg-1">
          <mxGeometry x="189.99" y="617.5" width="120" height="30" as="geometry" />
        </mxCell>
        <mxCell id="pSj7Kmk16YaTHSYiokDg-9" value="" style="rounded=0;whiteSpace=wrap;html=1;fillColor=light-dark(#000000,var(--ge-dark-color, #121212));" vertex="1" parent="pSj7Kmk16YaTHSYiokDg-1">
          <mxGeometry x="340" y="750" width="50" height="50" as="geometry" />
        </mxCell>
        <mxCell id="pSj7Kmk16YaTHSYiokDg-10" value="" style="group" vertex="1" connectable="0" parent="pSj7Kmk16YaTHSYiokDg-1">
          <mxGeometry x="579.99" y="750" width="50" height="50" as="geometry" />
        </mxCell>
        <mxCell id="pSj7Kmk16YaTHSYiokDg-11" value="" style="rounded=0;whiteSpace=wrap;html=1;fillColor=light-dark(#FFFFFF,var(--ge-dark-color, #121212));fontStyle=1" vertex="1" parent="pSj7Kmk16YaTHSYiokDg-10">
          <mxGeometry width="50" height="50" as="geometry" />
        </mxCell>
        <mxCell id="pSj7Kmk16YaTHSYiokDg-12" value="" style="endArrow=none;html=1;rounded=0;exitX=0;exitY=1;exitDx=0;exitDy=0;entryX=1;entryY=0;entryDx=0;entryDy=0;" edge="1" parent="pSj7Kmk16YaTHSYiokDg-10" source="pSj7Kmk16YaTHSYiokDg-11" target="pSj7Kmk16YaTHSYiokDg-11">
          <mxGeometry width="50" height="50" relative="1" as="geometry">
            <mxPoint y="30" as="sourcePoint" />
            <mxPoint x="50" y="-20" as="targetPoint" />
          </mxGeometry>
        </mxCell>
        <mxCell id="pSj7Kmk16YaTHSYiokDg-13" value="" style="endArrow=none;html=1;rounded=0;exitX=0;exitY=0;exitDx=0;exitDy=0;entryX=1;entryY=1;entryDx=0;entryDy=0;" edge="1" parent="pSj7Kmk16YaTHSYiokDg-10" source="pSj7Kmk16YaTHSYiokDg-11" target="pSj7Kmk16YaTHSYiokDg-11">
          <mxGeometry width="50" height="50" relative="1" as="geometry">
            <mxPoint x="10" y="60" as="sourcePoint" />
            <mxPoint x="60" y="10" as="targetPoint" />
          </mxGeometry>
        </mxCell>
        <mxCell id="pSj7Kmk16YaTHSYiokDg-14" value="&lt;font style=&quot;font-size: 21px;&quot;&gt;ЛКМ -&amp;nbsp;&lt;/font&gt;" style="text;html=1;align=center;verticalAlign=middle;whiteSpace=wrap;rounded=0;" vertex="1" parent="pSj7Kmk16YaTHSYiokDg-1">
          <mxGeometry x="190" y="755" width="90" height="40" as="geometry" />
        </mxCell>
        <mxCell id="pSj7Kmk16YaTHSYiokDg-15" value="&lt;span style=&quot;font-size: 21px;&quot;&gt;ПКМ -&lt;/span&gt;" style="text;html=1;align=center;verticalAlign=middle;whiteSpace=wrap;rounded=0;" vertex="1" parent="pSj7Kmk16YaTHSYiokDg-1">
          <mxGeometry x="474.99" y="755" width="90" height="40" as="geometry" />
        </mxCell>
        <mxCell id="pSj7Kmk16YaTHSYiokDg-16" value="&lt;span style=&quot;font-size: 21px;&quot;&gt;ПОВТОР -&amp;nbsp;&lt;/span&gt;" style="text;html=1;align=center;verticalAlign=middle;whiteSpace=wrap;rounded=0;" vertex="1" parent="pSj7Kmk16YaTHSYiokDg-1">
          <mxGeometry x="670" y="755" width="110" height="40" as="geometry" />
        </mxCell>
        <mxCell id="pSj7Kmk16YaTHSYiokDg-17" value="" style="rounded=0;whiteSpace=wrap;html=1;" vertex="1" parent="pSj7Kmk16YaTHSYiokDg-1">
          <mxGeometry x="790" y="750" width="50" height="50" as="geometry" />
        </mxCell>
        <mxCell id="pSj7Kmk16YaTHSYiokDg-18" value="Выйти в меню" style="rounded=1;whiteSpace=wrap;html=1;" vertex="1" parent="pSj7Kmk16YaTHSYiokDg-1">
          <mxGeometry x="30" y="30" width="90" height="40" as="geometry" />
        </mxCell>
        <mxCell id="pSj7Kmk16YaTHSYiokDg-19" value="" style="rounded=1;whiteSpace=wrap;html=1;" vertex="1" parent="pSj7Kmk16YaTHSYiokDg-1">
          <mxGeometry x="179.99" y="670" width="670.01" height="60" as="geometry" />
        </mxCell>
        <mxCell id="pSj7Kmk16YaTHSYiokDg-20" value="" style="rounded=1;whiteSpace=wrap;html=1;fillColor=light-dark(#00ff00, #005d00);strokeColor=default;gradientColor=none;strokeWidth=1;" vertex="1" parent="pSj7Kmk16YaTHSYiokDg-1">
          <mxGeometry x="179.99" y="670" width="20" height="60" as="geometry" />
        </mxCell>
        <mxCell id="pSj7Kmk16YaTHSYiokDg-21" value="Прогресс" style="text;html=1;align=center;verticalAlign=middle;whiteSpace=wrap;rounded=0;" vertex="1" parent="pSj7Kmk16YaTHSYiokDg-1">
          <mxGeometry x="485" y="685" width="60" height="30" as="geometry" />
        </mxCell>
        <mxCell id="F3Nut_GiSMdkUS9oikJD-14" value="" style="group" vertex="1" connectable="0" parent="1">
          <mxGeometry x="-2040" y="360" width="1080" height="800" as="geometry" />
        </mxCell>
        <mxCell id="bGE6eAaa-r7Rk--3EnrP-2" value="" style="rounded=0;whiteSpace=wrap;html=1;container=0;" vertex="1" parent="F3Nut_GiSMdkUS9oikJD-14">
          <mxGeometry width="1080" height="800" as="geometry" />
        </mxCell>
        <mxCell id="bGE6eAaa-r7Rk--3EnrP-8" value="Войти" style="rounded=1;whiteSpace=wrap;html=1;container=0;fontSize=27;" vertex="1" parent="F3Nut_GiSMdkUS9oikJD-14">
          <mxGeometry x="216" y="606.0606060606061" width="264" height="60.60606060606061" as="geometry" />
        </mxCell>
        <mxCell id="bGE6eAaa-r7Rk--3EnrP-9" value="Регистрация" style="rounded=1;whiteSpace=wrap;html=1;container=0;fontSize=27;" vertex="1" parent="F3Nut_GiSMdkUS9oikJD-14">
          <mxGeometry x="624" y="606.0606060606061" width="264" height="60.60606060606061" as="geometry" />
        </mxCell>
        <mxCell id="bGE6eAaa-r7Rk--3EnrP-10" value="Нет аккаунта?" style="text;html=1;align=center;verticalAlign=middle;whiteSpace=wrap;rounded=0;container=0;fontSize=27;" vertex="1" parent="F3Nut_GiSMdkUS9oikJD-14">
          <mxGeometry x="624" y="533.3333333333334" width="264" height="72.72727272727273" as="geometry" />
        </mxCell>
        <mxCell id="bGE6eAaa-r7Rk--3EnrP-4" value="" style="rounded=1;whiteSpace=wrap;html=1;container=0;" vertex="1" parent="F3Nut_GiSMdkUS9oikJD-14">
          <mxGeometry x="182.4" y="145.45454545454547" width="672" height="96.96969696969697" as="geometry" />
        </mxCell>
        <mxCell id="bGE6eAaa-r7Rk--3EnrP-5" value="Введите логин:" style="text;html=1;align=center;verticalAlign=middle;whiteSpace=wrap;rounded=0;container=0;fontSize=27;" vertex="1" parent="F3Nut_GiSMdkUS9oikJD-14">
          <mxGeometry x="158.4" y="72.72727272727273" width="312" height="72.72727272727273" as="geometry" />
        </mxCell>
        <mxCell id="bGE6eAaa-r7Rk--3EnrP-6" value="Введите пароль:" style="text;html=1;align=center;verticalAlign=middle;whiteSpace=wrap;rounded=0;container=0;fontSize=27;" vertex="1" parent="F3Nut_GiSMdkUS9oikJD-14">
          <mxGeometry x="182.4" y="266.6666666666667" width="312" height="72.72727272727273" as="geometry" />
        </mxCell>
        <mxCell id="bGE6eAaa-r7Rk--3EnrP-7" value="&lt;font&gt;&amp;nbsp;****&lt;/font&gt;" style="rounded=1;whiteSpace=wrap;html=1;align=left;container=0;fontSize=27;" vertex="1" parent="F3Nut_GiSMdkUS9oikJD-14">
          <mxGeometry x="182.4" y="339.3939393939394" width="672" height="96.96969696969697" as="geometry" />
        </mxCell>
        <mxCell id="F3Nut_GiSMdkUS9oikJD-19" value="Выйти в меню" style="rounded=1;whiteSpace=wrap;html=1;" vertex="1" parent="F3Nut_GiSMdkUS9oikJD-14">
          <mxGeometry x="20" y="32.73000000000002" width="90" height="40" as="geometry" />
        </mxCell>
        <mxCell id="F3Nut_GiSMdkUS9oikJD-17" value="" style="group" vertex="1" connectable="0" parent="1">
          <mxGeometry x="-1150" y="1520" width="1080" height="800" as="geometry" />
        </mxCell>
        <mxCell id="F3Nut_GiSMdkUS9oikJD-2" value="" style="rounded=0;whiteSpace=wrap;html=1;container=0;fontSize=25;" vertex="1" parent="F3Nut_GiSMdkUS9oikJD-17">
          <mxGeometry width="1080" height="800" as="geometry" />
        </mxCell>
        <mxCell id="F3Nut_GiSMdkUS9oikJD-3" value="Зарегистрироваться" style="rounded=1;whiteSpace=wrap;html=1;container=0;fontSize=25;" vertex="1" parent="F3Nut_GiSMdkUS9oikJD-17">
          <mxGeometry x="156" y="654.5454545454545" width="288.00000000000006" height="60.60606060606061" as="geometry" />
        </mxCell>
        <mxCell id="F3Nut_GiSMdkUS9oikJD-4" value="Авторизация" style="rounded=1;whiteSpace=wrap;html=1;container=0;fontSize=25;" vertex="1" parent="F3Nut_GiSMdkUS9oikJD-17">
          <mxGeometry x="624" y="654.5454545454545" width="264" height="60.60606060606061" as="geometry" />
        </mxCell>
        <mxCell id="F3Nut_GiSMdkUS9oikJD-5" value="Есть аккаунт?" style="text;html=1;align=center;verticalAlign=middle;whiteSpace=wrap;rounded=0;container=0;fontSize=25;" vertex="1" parent="F3Nut_GiSMdkUS9oikJD-17">
          <mxGeometry x="624" y="581.818181818182" width="264" height="72.72727272727273" as="geometry" />
        </mxCell>
        <mxCell id="F3Nut_GiSMdkUS9oikJD-6" value="" style="rounded=1;whiteSpace=wrap;html=1;container=0;fontSize=25;" vertex="1" parent="F3Nut_GiSMdkUS9oikJD-17">
          <mxGeometry x="132" y="121.21212121212125" width="672" height="48.484848484848484" as="geometry" />
        </mxCell>
        <mxCell id="F3Nut_GiSMdkUS9oikJD-7" value="Введите уникальный логин:" style="text;html=1;align=center;verticalAlign=middle;whiteSpace=wrap;rounded=0;container=0;fontSize=25;" vertex="1" parent="F3Nut_GiSMdkUS9oikJD-17">
          <mxGeometry x="132" y="48.4848484848485" width="408.00000000000006" height="72.72727272727273" as="geometry" />
        </mxCell>
        <mxCell id="F3Nut_GiSMdkUS9oikJD-8" value="Введите пароль:" style="text;html=1;align=center;verticalAlign=middle;whiteSpace=wrap;rounded=0;container=0;fontSize=25;" vertex="1" parent="F3Nut_GiSMdkUS9oikJD-17">
          <mxGeometry x="132" y="169.69696969696975" width="312.00000000000006" height="72.72727272727273" as="geometry" />
        </mxCell>
        <mxCell id="F3Nut_GiSMdkUS9oikJD-9" value="" style="rounded=1;whiteSpace=wrap;html=1;align=left;container=0;fontSize=25;" vertex="1" parent="F3Nut_GiSMdkUS9oikJD-17">
          <mxGeometry x="132" y="242.4242424242425" width="672" height="48.484848484848484" as="geometry" />
        </mxCell>
        <mxCell id="F3Nut_GiSMdkUS9oikJD-10" value="Подтвердите пароль:" style="text;html=1;align=center;verticalAlign=middle;whiteSpace=wrap;rounded=0;container=0;fontSize=25;" vertex="1" parent="F3Nut_GiSMdkUS9oikJD-17">
          <mxGeometry x="132" y="290.909090909091" width="312.00000000000006" height="72.72727272727273" as="geometry" />
        </mxCell>
        <mxCell id="F3Nut_GiSMdkUS9oikJD-11" value="" style="rounded=1;whiteSpace=wrap;html=1;align=left;container=0;fontSize=25;" vertex="1" parent="F3Nut_GiSMdkUS9oikJD-17">
          <mxGeometry x="132" y="363.6363636363635" width="672" height="48.484848484848484" as="geometry" />
        </mxCell>
        <mxCell id="F3Nut_GiSMdkUS9oikJD-12" value="Введите email:" style="text;html=1;align=center;verticalAlign=middle;whiteSpace=wrap;rounded=0;container=0;fontSize=25;" vertex="1" parent="F3Nut_GiSMdkUS9oikJD-17">
          <mxGeometry x="132" y="412.121212121212" width="312.00000000000006" height="72.72727272727273" as="geometry" />
        </mxCell>
        <mxCell id="F3Nut_GiSMdkUS9oikJD-13" value="" style="rounded=1;whiteSpace=wrap;html=1;align=left;container=0;fontSize=25;" vertex="1" parent="F3Nut_GiSMdkUS9oikJD-17">
          <mxGeometry x="132" y="484.848484848485" width="672" height="48.484848484848484" as="geometry" />
        </mxCell>
        <mxCell id="F3Nut_GiSMdkUS9oikJD-20" value="Выйти в меню" style="rounded=1;whiteSpace=wrap;html=1;" vertex="1" parent="F3Nut_GiSMdkUS9oikJD-17">
          <mxGeometry x="20" y="30" width="90" height="40" as="geometry" />
        </mxCell>
        <mxCell id="frpgTcIrS2ikqwQmE8Og-27" style="edgeStyle=orthogonalEdgeStyle;rounded=0;orthogonalLoop=1;jettySize=auto;html=1;entryX=0.5;entryY=1;entryDx=0;entryDy=0;fontSize=12;fontStyle=0;strokeWidth=4;" edge="1" parent="1" source="frpgTcIrS2ikqwQmE8Og-24" target="bGE6eAaa-r7Rk--3EnrP-2">
          <mxGeometry relative="1" as="geometry" />
        </mxCell>
        <mxCell id="frpgTcIrS2ikqwQmE8Og-28" style="edgeStyle=orthogonalEdgeStyle;rounded=0;orthogonalLoop=1;jettySize=auto;html=1;entryX=0.5;entryY=0;entryDx=0;entryDy=0;fontSize=12;fontStyle=0;strokeWidth=4;" edge="1" parent="1" source="frpgTcIrS2ikqwQmE8Og-24" target="F3Nut_GiSMdkUS9oikJD-2">
          <mxGeometry relative="1" as="geometry" />
        </mxCell>
        <mxCell id="frpgTcIrS2ikqwQmE8Og-29" style="edgeStyle=orthogonalEdgeStyle;rounded=0;orthogonalLoop=1;jettySize=auto;html=1;entryX=0.5;entryY=1;entryDx=0;entryDy=0;fontSize=12;fontStyle=0;strokeWidth=4;" edge="1" parent="1" source="frpgTcIrS2ikqwQmE8Og-24" target="esyHXLUQYYoeoOVSxhcm-2">
          <mxGeometry relative="1" as="geometry">
            <Array as="points">
              <mxPoint x="-990" y="1240" />
              <mxPoint x="-180" y="1240" />
            </Array>
          </mxGeometry>
        </mxCell>
        <mxCell id="frpgTcIrS2ikqwQmE8Og-24" value="&lt;b&gt;Форма регистрации&lt;/b&gt;" style="rounded=1;whiteSpace=wrap;html=1;fontSize=17;" vertex="1" parent="1">
          <mxGeometry x="-1090" y="1320" width="200" height="80" as="geometry" />
        </mxCell>
        <mxCell id="frpgTcIrS2ikqwQmE8Og-33" style="edgeStyle=orthogonalEdgeStyle;rounded=0;orthogonalLoop=1;jettySize=auto;html=1;entryX=0;entryY=0.5;entryDx=0;entryDy=0;exitX=0.5;exitY=0;exitDx=0;exitDy=0;fontSize=12;fontStyle=0;strokeWidth=4;" edge="1" parent="1" source="frpgTcIrS2ikqwQmE8Og-30" target="esyHXLUQYYoeoOVSxhcm-2">
          <mxGeometry relative="1" as="geometry" />
        </mxCell>
        <mxCell id="frpgTcIrS2ikqwQmE8Og-34" style="edgeStyle=orthogonalEdgeStyle;rounded=0;orthogonalLoop=1;jettySize=auto;html=1;exitX=0.5;exitY=1;exitDx=0;exitDy=0;entryX=1;entryY=0.5;entryDx=0;entryDy=0;fontSize=12;fontStyle=0;strokeWidth=4;" edge="1" parent="1" source="frpgTcIrS2ikqwQmE8Og-30" target="bGE6eAaa-r7Rk--3EnrP-2">
          <mxGeometry relative="1" as="geometry" />
        </mxCell>
        <mxCell id="frpgTcIrS2ikqwQmE8Og-30" value="&lt;b&gt;Форма авторизации&lt;/b&gt;" style="rounded=1;whiteSpace=wrap;html=1;fontSize=17;" vertex="1" parent="1">
          <mxGeometry x="-920" y="600" width="200" height="80" as="geometry" />
        </mxCell>
        <mxCell id="frpgTcIrS2ikqwQmE8Og-37" style="edgeStyle=orthogonalEdgeStyle;rounded=0;orthogonalLoop=1;jettySize=auto;html=1;entryX=0;entryY=0.5;entryDx=0;entryDy=0;exitX=0.5;exitY=1;exitDx=0;exitDy=0;fontSize=12;fontStyle=0;strokeWidth=4;" edge="1" parent="1" source="frpgTcIrS2ikqwQmE8Og-35" target="pSj7Kmk16YaTHSYiokDg-2">
          <mxGeometry relative="1" as="geometry" />
        </mxCell>
        <mxCell id="frpgTcIrS2ikqwQmE8Og-35" value="&lt;b&gt;Решение кроссворда&lt;/b&gt;" style="rounded=1;whiteSpace=wrap;html=1;fontSize=17;" vertex="1" parent="1">
          <mxGeometry x="390" y="610" width="200" height="80" as="geometry" />
        </mxCell>
        <mxCell id="frpgTcIrS2ikqwQmE8Og-36" style="edgeStyle=orthogonalEdgeStyle;rounded=0;orthogonalLoop=1;jettySize=auto;html=1;entryX=0.998;entryY=0.486;entryDx=0;entryDy=0;entryPerimeter=0;exitX=0.5;exitY=0;exitDx=0;exitDy=0;fontSize=12;fontStyle=0;strokeWidth=4;" edge="1" parent="1" source="frpgTcIrS2ikqwQmE8Og-35" target="esyHXLUQYYoeoOVSxhcm-2">
          <mxGeometry relative="1" as="geometry" />
        </mxCell>
      </root>
    </mxGraphModel>
  </diagram>
</mxfile>
